G04 #@! TF.GenerationSoftware,KiCad,Pcbnew,(5.1.4)-1*
G04 #@! TF.CreationDate,2020-04-13T20:16:16-06:00*
G04 #@! TF.ProjectId,ECUGPS,45435547-5053-42e6-9b69-6361645f7063,rev?*
G04 #@! TF.SameCoordinates,Original*
G04 #@! TF.FileFunction,Legend,Top*
G04 #@! TF.FilePolarity,Positive*
%FSLAX46Y46*%
G04 Gerber Fmt 4.6, Leading zero omitted, Abs format (unit mm)*
G04 Created by KiCad (PCBNEW (5.1.4)-1) date 2020-04-13 20:16:16*
%MOMM*%
%LPD*%
G04 APERTURE LIST*
%ADD10C,0.508000*%
%ADD11C,0.150000*%
%ADD12C,0.240000*%
%ADD13C,0.200000*%
%ADD14C,0.120000*%
%ADD15C,0.812800*%
%ADD16C,0.203200*%
%ADD17C,0.100000*%
%ADD18C,0.015000*%
%ADD19C,0.138988*%
G04 APERTURE END LIST*
D10*
X153321657Y-65423142D02*
X151870228Y-66439142D01*
X153321657Y-67164857D02*
X150273657Y-67164857D01*
X150273657Y-66003714D01*
X150418800Y-65713428D01*
X150563942Y-65568285D01*
X150854228Y-65423142D01*
X151289657Y-65423142D01*
X151579942Y-65568285D01*
X151725085Y-65713428D01*
X151870228Y-66003714D01*
X151870228Y-67164857D01*
X151725085Y-64116857D02*
X151725085Y-63100857D01*
X153321657Y-62665428D02*
X153321657Y-64116857D01*
X150273657Y-64116857D01*
X150273657Y-62665428D01*
X150273657Y-61794571D02*
X153321657Y-60778571D01*
X150273657Y-59762571D01*
X150563942Y-58891714D02*
X150418800Y-58746571D01*
X150273657Y-58456285D01*
X150273657Y-57730571D01*
X150418800Y-57440285D01*
X150563942Y-57295142D01*
X150854228Y-57150000D01*
X151144514Y-57150000D01*
X151579942Y-57295142D01*
X153321657Y-59036857D01*
X153321657Y-57150000D01*
D11*
X124050514Y-57513600D02*
X123955276Y-57465980D01*
X123812419Y-57465980D01*
X123669561Y-57513600D01*
X123574323Y-57608838D01*
X123526704Y-57704076D01*
X123479085Y-57894552D01*
X123479085Y-58037409D01*
X123526704Y-58227885D01*
X123574323Y-58323123D01*
X123669561Y-58418361D01*
X123812419Y-58465980D01*
X123907657Y-58465980D01*
X124050514Y-58418361D01*
X124098133Y-58370742D01*
X124098133Y-58037409D01*
X123907657Y-58037409D01*
X124526704Y-58465980D02*
X124526704Y-57465980D01*
X124907657Y-57465980D01*
X125002895Y-57513600D01*
X125050514Y-57561219D01*
X125098133Y-57656457D01*
X125098133Y-57799314D01*
X125050514Y-57894552D01*
X125002895Y-57942171D01*
X124907657Y-57989790D01*
X124526704Y-57989790D01*
X125479085Y-58418361D02*
X125621942Y-58465980D01*
X125860038Y-58465980D01*
X125955276Y-58418361D01*
X126002895Y-58370742D01*
X126050514Y-58275504D01*
X126050514Y-58180266D01*
X126002895Y-58085028D01*
X125955276Y-58037409D01*
X125860038Y-57989790D01*
X125669561Y-57942171D01*
X125574323Y-57894552D01*
X125526704Y-57846933D01*
X125479085Y-57751695D01*
X125479085Y-57656457D01*
X125526704Y-57561219D01*
X125574323Y-57513600D01*
X125669561Y-57465980D01*
X125907657Y-57465980D01*
X126050514Y-57513600D01*
X95378685Y-81846800D02*
X95283447Y-81799180D01*
X95140590Y-81799180D01*
X94997733Y-81846800D01*
X94902495Y-81942038D01*
X94854876Y-82037276D01*
X94807257Y-82227752D01*
X94807257Y-82370609D01*
X94854876Y-82561085D01*
X94902495Y-82656323D01*
X94997733Y-82751561D01*
X95140590Y-82799180D01*
X95235828Y-82799180D01*
X95378685Y-82751561D01*
X95426304Y-82703942D01*
X95426304Y-82370609D01*
X95235828Y-82370609D01*
X95807257Y-82751561D02*
X95950114Y-82799180D01*
X96188209Y-82799180D01*
X96283447Y-82751561D01*
X96331066Y-82703942D01*
X96378685Y-82608704D01*
X96378685Y-82513466D01*
X96331066Y-82418228D01*
X96283447Y-82370609D01*
X96188209Y-82322990D01*
X95997733Y-82275371D01*
X95902495Y-82227752D01*
X95854876Y-82180133D01*
X95807257Y-82084895D01*
X95807257Y-81989657D01*
X95854876Y-81894419D01*
X95902495Y-81846800D01*
X95997733Y-81799180D01*
X96235828Y-81799180D01*
X96378685Y-81846800D01*
X96807257Y-82799180D02*
X96807257Y-81799180D01*
X97140590Y-82513466D01*
X97473923Y-81799180D01*
X97473923Y-82799180D01*
X89082761Y-119984780D02*
X88606571Y-119984780D01*
X88606571Y-118984780D01*
X89416095Y-119984780D02*
X89416095Y-118984780D01*
X89892285Y-119984780D02*
X89892285Y-118984780D01*
X90463714Y-119984780D01*
X90463714Y-118984780D01*
X91701809Y-119984780D02*
X91701809Y-118984780D01*
X92368476Y-118984780D02*
X92558952Y-118984780D01*
X92654190Y-119032400D01*
X92749428Y-119127638D01*
X92797047Y-119318114D01*
X92797047Y-119651447D01*
X92749428Y-119841923D01*
X92654190Y-119937161D01*
X92558952Y-119984780D01*
X92368476Y-119984780D01*
X92273238Y-119937161D01*
X92178000Y-119841923D01*
X92130380Y-119651447D01*
X92130380Y-119318114D01*
X92178000Y-119127638D01*
X92273238Y-119032400D01*
X92368476Y-118984780D01*
X88663733Y-118308380D02*
X88663733Y-117308380D01*
X89663733Y-117356000D02*
X89568495Y-117308380D01*
X89425638Y-117308380D01*
X89282780Y-117356000D01*
X89187542Y-117451238D01*
X89139923Y-117546476D01*
X89092304Y-117736952D01*
X89092304Y-117879809D01*
X89139923Y-118070285D01*
X89187542Y-118165523D01*
X89282780Y-118260761D01*
X89425638Y-118308380D01*
X89520876Y-118308380D01*
X89663733Y-118260761D01*
X89711352Y-118213142D01*
X89711352Y-117879809D01*
X89520876Y-117879809D01*
X90139923Y-118308380D02*
X90139923Y-117308380D01*
X90711352Y-118308380D01*
X90711352Y-117308380D01*
X90949447Y-118403619D02*
X91711352Y-118403619D01*
X91949447Y-118308380D02*
X91949447Y-117308380D01*
X92425638Y-118308380D02*
X92425638Y-117308380D01*
X92997066Y-118308380D01*
X92997066Y-117308380D01*
X93118133Y-116587542D02*
X93070514Y-116635161D01*
X92927657Y-116682780D01*
X92832419Y-116682780D01*
X92689561Y-116635161D01*
X92594323Y-116539923D01*
X92546704Y-116444685D01*
X92499085Y-116254209D01*
X92499085Y-116111352D01*
X92546704Y-115920876D01*
X92594323Y-115825638D01*
X92689561Y-115730400D01*
X92832419Y-115682780D01*
X92927657Y-115682780D01*
X93070514Y-115730400D01*
X93118133Y-115778019D01*
X93499085Y-116397066D02*
X93975276Y-116397066D01*
X93403847Y-116682780D02*
X93737180Y-115682780D01*
X94070514Y-116682780D01*
X94403847Y-116682780D02*
X94403847Y-115682780D01*
X94975276Y-116682780D01*
X94975276Y-115682780D01*
X95451466Y-116682780D02*
X95451466Y-115682780D01*
X95451466Y-116158971D02*
X96022895Y-116158971D01*
X96022895Y-116682780D02*
X96022895Y-115682780D01*
X89223980Y-116587542D02*
X89176361Y-116635161D01*
X89033504Y-116682780D01*
X88938266Y-116682780D01*
X88795409Y-116635161D01*
X88700171Y-116539923D01*
X88652552Y-116444685D01*
X88604933Y-116254209D01*
X88604933Y-116111352D01*
X88652552Y-115920876D01*
X88700171Y-115825638D01*
X88795409Y-115730400D01*
X88938266Y-115682780D01*
X89033504Y-115682780D01*
X89176361Y-115730400D01*
X89223980Y-115778019D01*
X89604933Y-116397066D02*
X90081123Y-116397066D01*
X89509695Y-116682780D02*
X89843028Y-115682780D01*
X90176361Y-116682780D01*
X90509695Y-116682780D02*
X90509695Y-115682780D01*
X91081123Y-116682780D01*
X91081123Y-115682780D01*
X92033504Y-116682780D02*
X91557314Y-116682780D01*
X91557314Y-115682780D01*
X152852380Y-119062380D02*
X152852380Y-119633809D01*
X152852380Y-119348095D02*
X151852380Y-119348095D01*
X151995238Y-119443333D01*
X152090476Y-119538571D01*
X152138095Y-119633809D01*
X151947619Y-118681428D02*
X151900000Y-118633809D01*
X151852380Y-118538571D01*
X151852380Y-118300476D01*
X151900000Y-118205238D01*
X151947619Y-118157619D01*
X152042857Y-118110000D01*
X152138095Y-118110000D01*
X152280952Y-118157619D01*
X152852380Y-118729047D01*
X152852380Y-118110000D01*
X152852380Y-117681428D02*
X151852380Y-117681428D01*
X152852380Y-117205238D02*
X151852380Y-117205238D01*
X152852380Y-116633809D01*
X151852380Y-116633809D01*
X151277580Y-119119447D02*
X151277580Y-119690876D01*
X151277580Y-119405161D02*
X150277580Y-119405161D01*
X150420438Y-119500400D01*
X150515676Y-119595638D01*
X150563295Y-119690876D01*
X150372819Y-118738495D02*
X150325200Y-118690876D01*
X150277580Y-118595638D01*
X150277580Y-118357542D01*
X150325200Y-118262304D01*
X150372819Y-118214685D01*
X150468057Y-118167066D01*
X150563295Y-118167066D01*
X150706152Y-118214685D01*
X151277580Y-118786114D01*
X151277580Y-118167066D01*
X150277580Y-117548019D02*
X150277580Y-117357542D01*
X150325200Y-117262304D01*
X150420438Y-117167066D01*
X150610914Y-117119447D01*
X150944247Y-117119447D01*
X151134723Y-117167066D01*
X151229961Y-117262304D01*
X151277580Y-117357542D01*
X151277580Y-117548019D01*
X151229961Y-117643257D01*
X151134723Y-117738495D01*
X150944247Y-117786114D01*
X150610914Y-117786114D01*
X150420438Y-117738495D01*
X150325200Y-117643257D01*
X150277580Y-117548019D01*
X150277580Y-116690876D02*
X151087104Y-116690876D01*
X151182342Y-116643257D01*
X151229961Y-116595638D01*
X151277580Y-116500400D01*
X151277580Y-116309923D01*
X151229961Y-116214685D01*
X151182342Y-116167066D01*
X151087104Y-116119447D01*
X150277580Y-116119447D01*
X150277580Y-115786114D02*
X150277580Y-115214685D01*
X151277580Y-115500400D02*
X150277580Y-115500400D01*
X148651980Y-119682971D02*
X149651980Y-119349638D01*
X148651980Y-119016304D01*
X149651980Y-118206780D02*
X149651980Y-118682971D01*
X148651980Y-118682971D01*
X148651980Y-118016304D02*
X149651980Y-117682971D01*
X148651980Y-117349638D01*
X149651980Y-117016304D02*
X148651980Y-117016304D01*
X149651980Y-116540114D02*
X148651980Y-116540114D01*
X149651980Y-115968685D01*
X148651980Y-115968685D01*
X147074000Y-119125904D02*
X147026380Y-119221142D01*
X147026380Y-119364000D01*
X147074000Y-119506857D01*
X147169238Y-119602095D01*
X147264476Y-119649714D01*
X147454952Y-119697333D01*
X147597809Y-119697333D01*
X147788285Y-119649714D01*
X147883523Y-119602095D01*
X147978761Y-119506857D01*
X148026380Y-119364000D01*
X148026380Y-119268761D01*
X147978761Y-119125904D01*
X147931142Y-119078285D01*
X147597809Y-119078285D01*
X147597809Y-119268761D01*
X148026380Y-118649714D02*
X147026380Y-118649714D01*
X148026380Y-118078285D01*
X147026380Y-118078285D01*
X148026380Y-117602095D02*
X147026380Y-117602095D01*
X147026380Y-117364000D01*
X147074000Y-117221142D01*
X147169238Y-117125904D01*
X147264476Y-117078285D01*
X147454952Y-117030666D01*
X147597809Y-117030666D01*
X147788285Y-117078285D01*
X147883523Y-117125904D01*
X147978761Y-117221142D01*
X148026380Y-117364000D01*
X148026380Y-117602095D01*
D10*
X147203885Y-71613485D02*
X147203885Y-70597485D01*
X148800457Y-70162057D02*
X148800457Y-71613485D01*
X145752457Y-71613485D01*
X145752457Y-70162057D01*
X148510171Y-67114057D02*
X148655314Y-67259200D01*
X148800457Y-67694628D01*
X148800457Y-67984914D01*
X148655314Y-68420342D01*
X148365028Y-68710628D01*
X148074742Y-68855771D01*
X147494171Y-69000914D01*
X147058742Y-69000914D01*
X146478171Y-68855771D01*
X146187885Y-68710628D01*
X145897600Y-68420342D01*
X145752457Y-67984914D01*
X145752457Y-67694628D01*
X145897600Y-67259200D01*
X146042742Y-67114057D01*
X145752457Y-65807771D02*
X148219885Y-65807771D01*
X148510171Y-65662628D01*
X148655314Y-65517485D01*
X148800457Y-65227200D01*
X148800457Y-64646628D01*
X148655314Y-64356342D01*
X148510171Y-64211200D01*
X148219885Y-64066057D01*
X145752457Y-64066057D01*
X145897600Y-58695771D02*
X145752457Y-58986057D01*
X145752457Y-59421485D01*
X145897600Y-59856914D01*
X146187885Y-60147200D01*
X146478171Y-60292342D01*
X147058742Y-60437485D01*
X147494171Y-60437485D01*
X148074742Y-60292342D01*
X148365028Y-60147200D01*
X148655314Y-59856914D01*
X148800457Y-59421485D01*
X148800457Y-59131200D01*
X148655314Y-58695771D01*
X148510171Y-58550628D01*
X147494171Y-58550628D01*
X147494171Y-59131200D01*
X148800457Y-57244342D02*
X145752457Y-57244342D01*
X145752457Y-56083200D01*
X145897600Y-55792914D01*
X146042742Y-55647771D01*
X146333028Y-55502628D01*
X146768457Y-55502628D01*
X147058742Y-55647771D01*
X147203885Y-55792914D01*
X147349028Y-56083200D01*
X147349028Y-57244342D01*
X148655314Y-54341485D02*
X148800457Y-53906057D01*
X148800457Y-53180342D01*
X148655314Y-52890057D01*
X148510171Y-52744914D01*
X148219885Y-52599771D01*
X147929600Y-52599771D01*
X147639314Y-52744914D01*
X147494171Y-52890057D01*
X147349028Y-53180342D01*
X147203885Y-53760914D01*
X147058742Y-54051200D01*
X146913600Y-54196342D01*
X146623314Y-54341485D01*
X146333028Y-54341485D01*
X146042742Y-54196342D01*
X145897600Y-54051200D01*
X145752457Y-53760914D01*
X145752457Y-53035200D01*
X145897600Y-52599771D01*
X91846400Y-84770685D02*
X91846400Y-83319257D01*
X92717257Y-85060971D02*
X89669257Y-84044971D01*
X92717257Y-83028971D01*
X92717257Y-82012971D02*
X89669257Y-82012971D01*
X92717257Y-78819828D02*
X91265828Y-79835828D01*
X92717257Y-80561542D02*
X89669257Y-80561542D01*
X89669257Y-79400400D01*
X89814400Y-79110114D01*
X89959542Y-78964971D01*
X90249828Y-78819828D01*
X90685257Y-78819828D01*
X90975542Y-78964971D01*
X91120685Y-79110114D01*
X91265828Y-79400400D01*
X91265828Y-80561542D01*
X91120685Y-77513542D02*
X91120685Y-76497542D01*
X92717257Y-76062114D02*
X92717257Y-77513542D01*
X89669257Y-77513542D01*
X89669257Y-76062114D01*
X92717257Y-72433542D02*
X89669257Y-72433542D01*
X92717257Y-70691828D01*
X89669257Y-70691828D01*
X89669257Y-69240400D02*
X92136685Y-69240400D01*
X92426971Y-69095257D01*
X92572114Y-68950114D01*
X92717257Y-68659828D01*
X92717257Y-68079257D01*
X92572114Y-67788971D01*
X92426971Y-67643828D01*
X92136685Y-67498685D01*
X89669257Y-67498685D01*
X91120685Y-66047257D02*
X91120685Y-65031257D01*
X92717257Y-64595828D02*
X92717257Y-66047257D01*
X89669257Y-66047257D01*
X89669257Y-64595828D01*
X89669257Y-63724971D02*
X92717257Y-62708971D01*
X89669257Y-61692971D01*
X89669257Y-60096400D02*
X89669257Y-59515828D01*
X89814400Y-59225542D01*
X90104685Y-58935257D01*
X90685257Y-58790114D01*
X91701257Y-58790114D01*
X92281828Y-58935257D01*
X92572114Y-59225542D01*
X92717257Y-59515828D01*
X92717257Y-60096400D01*
X92572114Y-60386685D01*
X92281828Y-60676971D01*
X91701257Y-60822114D01*
X90685257Y-60822114D01*
X90104685Y-60676971D01*
X89814400Y-60386685D01*
X89669257Y-60096400D01*
D12*
X141394600Y-66369800D02*
G75*
G03X141394600Y-66369800I-120000J0D01*
G01*
D13*
X131407600Y-54025800D02*
X131407600Y-60121800D01*
X142007600Y-51724800D02*
X132007600Y-51724800D01*
X142607600Y-60121800D02*
X142607600Y-54025800D01*
X131407600Y-65724800D02*
X131407600Y-62788800D01*
X132943600Y-65724800D02*
X131407600Y-65724800D01*
X142607600Y-65724800D02*
X141071600Y-65724800D01*
X142607600Y-62788800D02*
X142607600Y-65724800D01*
D14*
X127091221Y-122734800D02*
X127416779Y-122734800D01*
X127091221Y-121714800D02*
X127416779Y-121714800D01*
X115783579Y-94536800D02*
X115458021Y-94536800D01*
X115783579Y-95556800D02*
X115458021Y-95556800D01*
X88657200Y-87626800D02*
X88657200Y-92306800D01*
X94877200Y-93006800D02*
X94877200Y-91726800D01*
X96477200Y-93006800D02*
X94877200Y-93006800D01*
X96477200Y-94026800D02*
X96477200Y-93006800D01*
X92227200Y-94026800D02*
X96477200Y-94026800D01*
X94877200Y-88206800D02*
X97767200Y-88206800D01*
X94877200Y-86926800D02*
X94877200Y-88206800D01*
X96477200Y-86926800D02*
X94877200Y-86926800D01*
X96477200Y-85906800D02*
X96477200Y-86926800D01*
X92227200Y-85906800D02*
X96477200Y-85906800D01*
X135932400Y-69483200D02*
X135932400Y-68083200D01*
X133612400Y-68083200D02*
X133612400Y-69983200D01*
X139040800Y-120239022D02*
X139040800Y-120756178D01*
X140460800Y-120239022D02*
X140460800Y-120756178D01*
X94594800Y-99570000D02*
X93664800Y-99570000D01*
X91434800Y-99570000D02*
X92364800Y-99570000D01*
X91434800Y-99570000D02*
X91434800Y-101730000D01*
X94594800Y-99570000D02*
X94594800Y-101030000D01*
X103660800Y-104916400D02*
X103420800Y-104916400D01*
X103660800Y-106716400D02*
X103660800Y-104916400D01*
X107260800Y-104916400D02*
X107260800Y-106716400D01*
X105860800Y-108516400D02*
X105060800Y-108516400D01*
X105060800Y-103116400D02*
X105860800Y-103116400D01*
X105060800Y-102716400D02*
X105060800Y-103116400D01*
X103632000Y-101772400D02*
X107082000Y-101772400D01*
X103632000Y-101772400D02*
X101682000Y-101772400D01*
X103632000Y-96652400D02*
X105582000Y-96652400D01*
X103632000Y-96652400D02*
X101682000Y-96652400D01*
X102214178Y-110694400D02*
X101697022Y-110694400D01*
X102214178Y-112114400D02*
X101697022Y-112114400D01*
X135230800Y-120493022D02*
X135230800Y-121010178D01*
X136650800Y-120493022D02*
X136650800Y-121010178D01*
X105662800Y-114507778D02*
X105662800Y-113990622D01*
X104242800Y-114507778D02*
X104242800Y-113990622D01*
X135230800Y-124201422D02*
X135230800Y-124718578D01*
X136650800Y-124201422D02*
X136650800Y-124718578D01*
X97429822Y-114959200D02*
X97946978Y-114959200D01*
X97429822Y-113539200D02*
X97946978Y-113539200D01*
X101195600Y-112669200D02*
X102655600Y-112669200D01*
X101195600Y-115829200D02*
X103355600Y-115829200D01*
X101195600Y-115829200D02*
X101195600Y-114899200D01*
X101195600Y-112669200D02*
X101195600Y-113599200D01*
X140663200Y-126040000D02*
X139203200Y-126040000D01*
X140663200Y-122880000D02*
X138503200Y-122880000D01*
X140663200Y-122880000D02*
X140663200Y-123810000D01*
X140663200Y-126040000D02*
X140663200Y-125110000D01*
X146078800Y-126640800D02*
X146578800Y-126640800D01*
X146078800Y-125900800D02*
X146078800Y-126640800D01*
X157058800Y-120080800D02*
X157058800Y-126400800D01*
X146318800Y-120080800D02*
X146318800Y-126400800D01*
X146318800Y-126400800D02*
X157058800Y-126400800D01*
X146318800Y-120080800D02*
X157058800Y-120080800D01*
X146318800Y-120540800D02*
X157058800Y-120540800D01*
X146318800Y-125840800D02*
X157058800Y-125840800D01*
X88751200Y-103965600D02*
X88751200Y-104465600D01*
X89491200Y-103965600D02*
X88751200Y-103965600D01*
X95311200Y-114945600D02*
X88991200Y-114945600D01*
X95311200Y-104205600D02*
X88991200Y-104205600D01*
X88991200Y-104205600D02*
X88991200Y-114945600D01*
X95311200Y-104205600D02*
X95311200Y-114945600D01*
X94851200Y-104205600D02*
X94851200Y-114945600D01*
X89551200Y-104205600D02*
X89551200Y-114945600D01*
X95987600Y-112315200D02*
X95987600Y-106915200D01*
X99287600Y-112315200D02*
X99287600Y-106915200D01*
X95987600Y-112315200D02*
X99287600Y-112315200D01*
X105653621Y-111914400D02*
X105979179Y-111914400D01*
X105653621Y-110894400D02*
X105979179Y-110894400D01*
X154159200Y-105849600D02*
X155669200Y-105849600D01*
X154159200Y-109549600D02*
X155669200Y-109549600D01*
X155669200Y-112820600D02*
X155669200Y-102579600D01*
X154159200Y-102579600D02*
X158800200Y-102579600D01*
X154159200Y-112820600D02*
X158800200Y-112820600D01*
X158800200Y-112820600D02*
X158800200Y-102579600D01*
X154159200Y-112820600D02*
X154159200Y-102579600D01*
X114325600Y-91503600D02*
X114325600Y-93803600D01*
X117525600Y-93103600D02*
X117525600Y-91503600D01*
X153465600Y-111612178D02*
X153465600Y-111095022D01*
X152045600Y-111612178D02*
X152045600Y-111095022D01*
X151994800Y-107285022D02*
X151994800Y-107802178D01*
X153414800Y-107285022D02*
X153414800Y-107802178D01*
X119223022Y-95706000D02*
X119740178Y-95706000D01*
X119223022Y-94286000D02*
X119740178Y-94286000D01*
X118060400Y-91994222D02*
X118060400Y-92511378D01*
X119480400Y-91994222D02*
X119480400Y-92511378D01*
X100740800Y-89872736D02*
X100740800Y-91076864D01*
X102560800Y-89872736D02*
X102560800Y-91076864D01*
X116270821Y-54916800D02*
X116596379Y-54916800D01*
X116270821Y-53896800D02*
X116596379Y-53896800D01*
D15*
X103176000Y-86498000D02*
G75*
G03X103176000Y-86498000I-400000J0D01*
G01*
D16*
X100776000Y-60898000D02*
X103776000Y-60898000D01*
X100776000Y-63898000D02*
X100776000Y-60898000D01*
X124776000Y-60898000D02*
X121776000Y-60898000D01*
X124776000Y-63898000D02*
X124776000Y-60898000D01*
X124776000Y-84898000D02*
X124776000Y-81898000D01*
X121776000Y-84898000D02*
X124776000Y-84898000D01*
X100776000Y-84898000D02*
X103776000Y-84898000D01*
X100776000Y-81898000D02*
X100776000Y-84898000D01*
D14*
X140807221Y-68378800D02*
X141132779Y-68378800D01*
X140807221Y-67358800D02*
X141132779Y-67358800D01*
D13*
X144242000Y-108294000D02*
X143542000Y-108294000D01*
X144242000Y-100494000D02*
X143542000Y-100494000D01*
X143542000Y-108294000D02*
X143542000Y-100494000D01*
X147542000Y-108294000D02*
X146142000Y-108294000D01*
X147542000Y-100494000D02*
X146142000Y-100494000D01*
X147542000Y-108294000D02*
X147542000Y-100494000D01*
D14*
X126760400Y-126425600D02*
X129210400Y-126425600D01*
X128560400Y-123205600D02*
X126760400Y-123205600D01*
X126811200Y-121244000D02*
X129261200Y-121244000D01*
X128611200Y-118024000D02*
X126811200Y-118024000D01*
X126760400Y-115960800D02*
X129210400Y-115960800D01*
X128560400Y-112740800D02*
X126760400Y-112740800D01*
X142368000Y-126183600D02*
X142368000Y-120783600D01*
X145668000Y-126183600D02*
X145668000Y-120783600D01*
X142368000Y-126183600D02*
X145668000Y-126183600D01*
X127091221Y-117502400D02*
X127416779Y-117502400D01*
X127091221Y-116482400D02*
X127416779Y-116482400D01*
X105318779Y-124966000D02*
X104993221Y-124966000D01*
X105318779Y-125986000D02*
X104993221Y-125986000D01*
D11*
X131909400Y-101651200D02*
X130534400Y-101651200D01*
X139159400Y-101226200D02*
X138634400Y-101226200D01*
X139159400Y-108476200D02*
X138634400Y-108476200D01*
X131909400Y-108476200D02*
X132434400Y-108476200D01*
X131909400Y-101226200D02*
X132434400Y-101226200D01*
X131909400Y-108476200D02*
X131909400Y-107951200D01*
X139159400Y-108476200D02*
X139159400Y-107951200D01*
X139159400Y-101226200D02*
X139159400Y-101751200D01*
X131909400Y-101226200D02*
X131909400Y-101651200D01*
D14*
X112201600Y-93356000D02*
X112201600Y-90906000D01*
X108981600Y-91556000D02*
X108981600Y-93356000D01*
X102209600Y-121787600D02*
X105659600Y-121787600D01*
X102209600Y-121787600D02*
X100259600Y-121787600D01*
X102209600Y-116667600D02*
X104159600Y-116667600D01*
X102209600Y-116667600D02*
X100259600Y-116667600D01*
X108560800Y-54808622D02*
X108560800Y-55325778D01*
X109980800Y-54808622D02*
X109980800Y-55325778D01*
X112577378Y-52934800D02*
X112060222Y-52934800D01*
X112577378Y-54354800D02*
X112060222Y-54354800D01*
X148893600Y-111866178D02*
X148893600Y-111349022D01*
X147473600Y-111866178D02*
X147473600Y-111349022D01*
X101756978Y-123953200D02*
X101239822Y-123953200D01*
X101756978Y-125373200D02*
X101239822Y-125373200D01*
X104745022Y-124154000D02*
X105262178Y-124154000D01*
X104745022Y-122734000D02*
X105262178Y-122734000D01*
X113078800Y-58577600D02*
X111618800Y-58577600D01*
X113078800Y-55417600D02*
X110918800Y-55417600D01*
X113078800Y-55417600D02*
X113078800Y-56347600D01*
X113078800Y-58577600D02*
X113078800Y-57647600D01*
X98973200Y-125815600D02*
X95073200Y-125815600D01*
X98973200Y-123815600D02*
X95073200Y-123815600D01*
X98973200Y-125815600D02*
X98973200Y-123815600D01*
X113794000Y-93075979D02*
X113794000Y-92750421D01*
X112774000Y-93075979D02*
X112774000Y-92750421D01*
X152257979Y-103731600D02*
X151932421Y-103731600D01*
X152257979Y-104751600D02*
X151932421Y-104751600D01*
X125029179Y-100683600D02*
X124703621Y-100683600D01*
X125029179Y-101703600D02*
X124703621Y-101703600D01*
X125029179Y-98194400D02*
X124703621Y-98194400D01*
X125029179Y-99214400D02*
X124703621Y-99214400D01*
X157104000Y-74329600D02*
X157804000Y-73929600D01*
X157104000Y-73529600D02*
X157104000Y-74729600D01*
X157804000Y-74729600D02*
X157804000Y-73529600D01*
X157804000Y-74159600D02*
X158904000Y-74159600D01*
X157104000Y-74159600D02*
X156004000Y-74159600D01*
X157804000Y-73529600D02*
X157104000Y-73529600D01*
X157104000Y-74729600D02*
X157804000Y-74729600D01*
X148884000Y-71769600D02*
X150094000Y-71769600D01*
X148884000Y-73069600D02*
X148884000Y-71769600D01*
X149034000Y-72019600D02*
X149034000Y-101269600D01*
X149034000Y-101269600D02*
X161604000Y-101269600D01*
X161604000Y-101269600D02*
X161604000Y-72019600D01*
X161604000Y-72019600D02*
X149034000Y-72019600D01*
X153684000Y-72019600D02*
X153684000Y-73059600D01*
X153684000Y-73079600D02*
X156684000Y-73079600D01*
X156684000Y-73079600D02*
X156684000Y-72019600D01*
X152604000Y-74159600D02*
X151504000Y-74159600D01*
X153304000Y-74159600D02*
X154404000Y-74159600D01*
X152604000Y-74329600D02*
X153304000Y-73929600D01*
X152604000Y-73529600D02*
X152604000Y-74729600D01*
X152604000Y-74729600D02*
X153304000Y-74729600D01*
X153304000Y-74729600D02*
X153304000Y-73529600D01*
X153304000Y-73529600D02*
X152604000Y-73529600D01*
X94410400Y-80392400D02*
X94410400Y-79592400D01*
X94610400Y-80392400D02*
X94410400Y-80392400D01*
X94410400Y-77392400D02*
X94610400Y-77392400D01*
X94410400Y-78192400D02*
X94410400Y-77392400D01*
X97410400Y-77392400D02*
X97410400Y-78192400D01*
X97210400Y-77392400D02*
X97410400Y-77392400D01*
X97410400Y-80192400D02*
X97210400Y-80392400D01*
X97410400Y-79592400D02*
X97410400Y-80192400D01*
X97410400Y-79592400D02*
X97910400Y-79592400D01*
X97410400Y-78192400D02*
X97910400Y-78192400D01*
X115782800Y-56930400D02*
X116982800Y-56930400D01*
X116982800Y-58690400D02*
X115782800Y-58690400D01*
X100020622Y-57504400D02*
X100537778Y-57504400D01*
X100020622Y-56084400D02*
X100537778Y-56084400D01*
X95036421Y-98046000D02*
X95361979Y-98046000D01*
X95036421Y-97026000D02*
X95361979Y-97026000D01*
X104296978Y-56033600D02*
X103779822Y-56033600D01*
X104296978Y-57453600D02*
X103779822Y-57453600D01*
X142848400Y-109122978D02*
X142848400Y-108605822D01*
X141428400Y-109122978D02*
X141428400Y-108605822D01*
X144572222Y-83209200D02*
X145089378Y-83209200D01*
X144572222Y-81789200D02*
X145089378Y-81789200D01*
X139390622Y-83209200D02*
X139907778Y-83209200D01*
X139390622Y-81789200D02*
X139907778Y-81789200D01*
X95251200Y-100122222D02*
X95251200Y-100639378D01*
X96671200Y-100122222D02*
X96671200Y-100639378D01*
X89256800Y-100122222D02*
X89256800Y-100639378D01*
X90676800Y-100122222D02*
X90676800Y-100639378D01*
X99160400Y-102569778D02*
X99160400Y-102052622D01*
X97740400Y-102569778D02*
X97740400Y-102052622D01*
X141634978Y-97130800D02*
X141117822Y-97130800D01*
X141634978Y-98550800D02*
X141117822Y-98550800D01*
X102353400Y-55570000D02*
X105038400Y-55570000D01*
X102353400Y-53650000D02*
X102353400Y-55570000D01*
X105038400Y-53650000D02*
X102353400Y-53650000D01*
X101913400Y-53650000D02*
X99228400Y-53650000D01*
X101913400Y-55570000D02*
X101913400Y-53650000D01*
X99228400Y-55570000D02*
X101913400Y-55570000D01*
X119353200Y-54938800D02*
X120153200Y-54938800D01*
X119353200Y-55138800D02*
X119353200Y-54938800D01*
X122353200Y-54938800D02*
X122353200Y-55138800D01*
X121553200Y-54938800D02*
X122353200Y-54938800D01*
X122353200Y-57938800D02*
X121553200Y-57938800D01*
X122353200Y-57738800D02*
X122353200Y-57938800D01*
X119553200Y-57938800D02*
X119353200Y-57738800D01*
X120153200Y-57938800D02*
X119553200Y-57938800D01*
X120153200Y-57938800D02*
X120153200Y-58438800D01*
X121553200Y-57938800D02*
X121553200Y-58438800D01*
X143098400Y-114105400D02*
X143098400Y-111420400D01*
X141178400Y-114105400D02*
X143098400Y-114105400D01*
X141178400Y-111420400D02*
X141178400Y-114105400D01*
X106765600Y-88377200D02*
X106765600Y-92277200D01*
X104765600Y-88377200D02*
X104765600Y-92277200D01*
X106765600Y-88377200D02*
X104765600Y-88377200D01*
X160880000Y-119455200D02*
X155480000Y-119455200D01*
X160880000Y-116155200D02*
X155480000Y-116155200D01*
X160880000Y-119455200D02*
X160880000Y-116155200D01*
X147030000Y-77555600D02*
X143130000Y-77555600D01*
X147030000Y-75555600D02*
X143130000Y-75555600D01*
X147030000Y-77555600D02*
X147030000Y-75555600D01*
X141899200Y-77555600D02*
X137999200Y-77555600D01*
X141899200Y-75555600D02*
X137999200Y-75555600D01*
X141899200Y-77555600D02*
X141899200Y-75555600D01*
X144785200Y-109922600D02*
X144785200Y-112607600D01*
X146705200Y-109922600D02*
X144785200Y-109922600D01*
X146705200Y-112607600D02*
X146705200Y-109922600D01*
X108865600Y-119680222D02*
X108865600Y-120197378D01*
X110285600Y-119680222D02*
X110285600Y-120197378D01*
X126959579Y-105052400D02*
X126634021Y-105052400D01*
X126959579Y-106072400D02*
X126634021Y-106072400D01*
X135333200Y-112786379D02*
X135333200Y-112460821D01*
X134313200Y-112786379D02*
X134313200Y-112460821D01*
X126959579Y-106576400D02*
X126634021Y-106576400D01*
X126959579Y-107596400D02*
X126634021Y-107596400D01*
X155500800Y-114665979D02*
X155500800Y-114340421D01*
X154480800Y-114665979D02*
X154480800Y-114340421D01*
X124144821Y-86971600D02*
X124470379Y-86971600D01*
X124144821Y-85951600D02*
X124470379Y-85951600D01*
X110174821Y-89511600D02*
X110500379Y-89511600D01*
X110174821Y-88491600D02*
X110500379Y-88491600D01*
X107236800Y-89600821D02*
X107236800Y-89926379D01*
X108256800Y-89600821D02*
X108256800Y-89926379D01*
X103223600Y-89550021D02*
X103223600Y-89875579D01*
X104243600Y-89550021D02*
X104243600Y-89875579D01*
X136286021Y-118518400D02*
X136611579Y-118518400D01*
X136286021Y-117498400D02*
X136611579Y-117498400D01*
X126959579Y-102664800D02*
X126634021Y-102664800D01*
X126959579Y-103684800D02*
X126634021Y-103684800D01*
X96530379Y-118057200D02*
X96204821Y-118057200D01*
X96530379Y-119077200D02*
X96204821Y-119077200D01*
X90942379Y-97026000D02*
X90616821Y-97026000D01*
X90942379Y-98046000D02*
X90616821Y-98046000D01*
X96479579Y-121105200D02*
X96154021Y-121105200D01*
X96479579Y-122125200D02*
X96154021Y-122125200D01*
X103266021Y-96115600D02*
X103591579Y-96115600D01*
X103266021Y-95095600D02*
X103591579Y-95095600D01*
X121562400Y-96560421D02*
X121562400Y-96885979D01*
X122582400Y-96560421D02*
X122582400Y-96885979D01*
X141010421Y-96572800D02*
X141335979Y-96572800D01*
X141010421Y-95552800D02*
X141335979Y-95552800D01*
X102313200Y-104404379D02*
X102313200Y-104078821D01*
X101293200Y-104404379D02*
X101293200Y-104078821D01*
X101293200Y-107228421D02*
X101293200Y-107553979D01*
X102313200Y-107228421D02*
X102313200Y-107553979D01*
X136717821Y-96420400D02*
X137043379Y-96420400D01*
X136717821Y-95400400D02*
X137043379Y-95400400D01*
X136717821Y-98096800D02*
X137043379Y-98096800D01*
X136717821Y-97076800D02*
X137043379Y-97076800D01*
X142445200Y-101762779D02*
X142445200Y-101437221D01*
X141425200Y-101762779D02*
X141425200Y-101437221D01*
X124294800Y-117300400D02*
X124294800Y-123600400D01*
X111424800Y-118000400D02*
X111424800Y-123600400D01*
X124294800Y-113590400D02*
X124294800Y-115400400D01*
X111424800Y-113590400D02*
X122684800Y-113590400D01*
X111424800Y-114750400D02*
X111424800Y-113590400D01*
X124184800Y-113590400D02*
X124294800Y-113590400D01*
X146410800Y-78843600D02*
X145480800Y-78843600D01*
X143250800Y-78843600D02*
X144180800Y-78843600D01*
X143250800Y-78843600D02*
X143250800Y-81003600D01*
X146410800Y-78843600D02*
X146410800Y-80303600D01*
X141229200Y-78843600D02*
X140299200Y-78843600D01*
X138069200Y-78843600D02*
X138999200Y-78843600D01*
X138069200Y-78843600D02*
X138069200Y-81003600D01*
X141229200Y-78843600D02*
X141229200Y-80303600D01*
X128889800Y-99424400D02*
X128889800Y-100524400D01*
X126989800Y-99424400D02*
X126989800Y-100524400D01*
X128839800Y-98024400D02*
X127039800Y-98024400D01*
D11*
X110729800Y-96716800D02*
X110729800Y-96966800D01*
X118479800Y-96716800D02*
X118479800Y-97061800D01*
X118479800Y-108616800D02*
X118479800Y-108271800D01*
X110729800Y-108616800D02*
X110729800Y-108271800D01*
X110729800Y-96716800D02*
X118479800Y-96716800D01*
X110729800Y-108616800D02*
X118479800Y-108616800D01*
X110729800Y-96966800D02*
X108904800Y-96966800D01*
D16*
X143849600Y-89966800D02*
G75*
G03X143849600Y-89966800I-1000000J0D01*
G01*
X144352900Y-89966800D02*
G75*
G03X144352900Y-89966800I-1503300J0D01*
G01*
X144049600Y-93266800D02*
X141649600Y-93266800D01*
X141649600Y-86666800D02*
X144049600Y-86666800D01*
X139849600Y-93266800D02*
X139849600Y-86666800D01*
X145849600Y-86666800D02*
X145849600Y-93266800D01*
D17*
X133175600Y-94841600D02*
X133475600Y-94841600D01*
X133175600Y-94541600D02*
X133175600Y-94841600D01*
X133175600Y-88241600D02*
X133475600Y-88241600D01*
X133175600Y-88541600D02*
X133175600Y-88241600D01*
X136775600Y-88241600D02*
X136475600Y-88241600D01*
X136775600Y-88541600D02*
X136775600Y-88241600D01*
X136775600Y-94841600D02*
X136475600Y-94841600D01*
X136775600Y-94541600D02*
X136775600Y-94841600D01*
D18*
X139101298Y-66920125D02*
X139101298Y-67635103D01*
X139053633Y-67778098D01*
X138958303Y-67873429D01*
X138815307Y-67921094D01*
X138719977Y-67921094D01*
X139720946Y-67349112D02*
X139625615Y-67301446D01*
X139577950Y-67253781D01*
X139530285Y-67158451D01*
X139530285Y-67110786D01*
X139577950Y-67015455D01*
X139625615Y-66967790D01*
X139720946Y-66920125D01*
X139911606Y-66920125D01*
X140006937Y-66967790D01*
X140054602Y-67015455D01*
X140102267Y-67110786D01*
X140102267Y-67158451D01*
X140054602Y-67253781D01*
X140006937Y-67301446D01*
X139911606Y-67349112D01*
X139720946Y-67349112D01*
X139625615Y-67396777D01*
X139577950Y-67444442D01*
X139530285Y-67539772D01*
X139530285Y-67730433D01*
X139577950Y-67825763D01*
X139625615Y-67873429D01*
X139720946Y-67921094D01*
X139911606Y-67921094D01*
X140006937Y-67873429D01*
X140054602Y-67825763D01*
X140102267Y-67730433D01*
X140102267Y-67539772D01*
X140054602Y-67444442D01*
X140006937Y-67396777D01*
X139911606Y-67349112D01*
D11*
X130065542Y-122429542D02*
X130017923Y-122477161D01*
X129875066Y-122524780D01*
X129779828Y-122524780D01*
X129636971Y-122477161D01*
X129541733Y-122381923D01*
X129494114Y-122286685D01*
X129446495Y-122096209D01*
X129446495Y-121953352D01*
X129494114Y-121762876D01*
X129541733Y-121667638D01*
X129636971Y-121572400D01*
X129779828Y-121524780D01*
X129875066Y-121524780D01*
X130017923Y-121572400D01*
X130065542Y-121620019D01*
X130446495Y-121620019D02*
X130494114Y-121572400D01*
X130589352Y-121524780D01*
X130827447Y-121524780D01*
X130922685Y-121572400D01*
X130970304Y-121620019D01*
X131017923Y-121715257D01*
X131017923Y-121810495D01*
X130970304Y-121953352D01*
X130398876Y-122524780D01*
X131017923Y-122524780D01*
X131351257Y-121524780D02*
X131970304Y-121524780D01*
X131636971Y-121905733D01*
X131779828Y-121905733D01*
X131875066Y-121953352D01*
X131922685Y-122000971D01*
X131970304Y-122096209D01*
X131970304Y-122334304D01*
X131922685Y-122429542D01*
X131875066Y-122477161D01*
X131779828Y-122524780D01*
X131494114Y-122524780D01*
X131398876Y-122477161D01*
X131351257Y-122429542D01*
X112183942Y-95607142D02*
X112136323Y-95654761D01*
X111993466Y-95702380D01*
X111898228Y-95702380D01*
X111755371Y-95654761D01*
X111660133Y-95559523D01*
X111612514Y-95464285D01*
X111564895Y-95273809D01*
X111564895Y-95130952D01*
X111612514Y-94940476D01*
X111660133Y-94845238D01*
X111755371Y-94750000D01*
X111898228Y-94702380D01*
X111993466Y-94702380D01*
X112136323Y-94750000D01*
X112183942Y-94797619D01*
X112564895Y-94797619D02*
X112612514Y-94750000D01*
X112707752Y-94702380D01*
X112945847Y-94702380D01*
X113041085Y-94750000D01*
X113088704Y-94797619D01*
X113136323Y-94892857D01*
X113136323Y-94988095D01*
X113088704Y-95130952D01*
X112517276Y-95702380D01*
X113136323Y-95702380D01*
X114088704Y-95702380D02*
X113517276Y-95702380D01*
X113802990Y-95702380D02*
X113802990Y-94702380D01*
X113707752Y-94845238D01*
X113612514Y-94940476D01*
X113517276Y-94988095D01*
X99324342Y-90657276D02*
X99371961Y-90704895D01*
X99419580Y-90847752D01*
X99419580Y-90942990D01*
X99371961Y-91085847D01*
X99276723Y-91181085D01*
X99181485Y-91228704D01*
X98991009Y-91276323D01*
X98848152Y-91276323D01*
X98657676Y-91228704D01*
X98562438Y-91181085D01*
X98467200Y-91085847D01*
X98419580Y-90942990D01*
X98419580Y-90847752D01*
X98467200Y-90704895D01*
X98514819Y-90657276D01*
X99419580Y-90228704D02*
X98419580Y-90228704D01*
X99419580Y-89657276D01*
X98419580Y-89657276D01*
X99419580Y-88657276D02*
X99419580Y-89228704D01*
X99419580Y-88942990D02*
X98419580Y-88942990D01*
X98562438Y-89038228D01*
X98657676Y-89133466D01*
X98705295Y-89228704D01*
X133224780Y-69521295D02*
X132224780Y-69521295D01*
X132224780Y-69283200D01*
X132272400Y-69140342D01*
X132367638Y-69045104D01*
X132462876Y-68997485D01*
X132653352Y-68949866D01*
X132796209Y-68949866D01*
X132986685Y-68997485D01*
X133081923Y-69045104D01*
X133177161Y-69140342D01*
X133224780Y-69283200D01*
X133224780Y-69521295D01*
X133224780Y-68473676D02*
X133224780Y-68283200D01*
X133177161Y-68187961D01*
X133129542Y-68140342D01*
X132986685Y-68045104D01*
X132796209Y-67997485D01*
X132415257Y-67997485D01*
X132320019Y-68045104D01*
X132272400Y-68092723D01*
X132224780Y-68187961D01*
X132224780Y-68378438D01*
X132272400Y-68473676D01*
X132320019Y-68521295D01*
X132415257Y-68568914D01*
X132653352Y-68568914D01*
X132748590Y-68521295D01*
X132796209Y-68473676D01*
X132843828Y-68378438D01*
X132843828Y-68187961D01*
X132796209Y-68092723D01*
X132748590Y-68045104D01*
X132653352Y-67997485D01*
X141853180Y-121140457D02*
X141376990Y-121473790D01*
X141853180Y-121711885D02*
X140853180Y-121711885D01*
X140853180Y-121330933D01*
X140900800Y-121235695D01*
X140948419Y-121188076D01*
X141043657Y-121140457D01*
X141186514Y-121140457D01*
X141281752Y-121188076D01*
X141329371Y-121235695D01*
X141376990Y-121330933D01*
X141376990Y-121711885D01*
X141853180Y-120188076D02*
X141853180Y-120759504D01*
X141853180Y-120473790D02*
X140853180Y-120473790D01*
X140996038Y-120569028D01*
X141091276Y-120664266D01*
X141138895Y-120759504D01*
X140853180Y-119854742D02*
X140853180Y-119235695D01*
X141234133Y-119569028D01*
X141234133Y-119426171D01*
X141281752Y-119330933D01*
X141329371Y-119283314D01*
X141424609Y-119235695D01*
X141662704Y-119235695D01*
X141757942Y-119283314D01*
X141805561Y-119330933D01*
X141853180Y-119426171D01*
X141853180Y-119711885D01*
X141805561Y-119807123D01*
X141757942Y-119854742D01*
X92225904Y-103525580D02*
X92225904Y-102525580D01*
X92464000Y-102525580D01*
X92606857Y-102573200D01*
X92702095Y-102668438D01*
X92749714Y-102763676D01*
X92797333Y-102954152D01*
X92797333Y-103097009D01*
X92749714Y-103287485D01*
X92702095Y-103382723D01*
X92606857Y-103477961D01*
X92464000Y-103525580D01*
X92225904Y-103525580D01*
X93178285Y-102620819D02*
X93225904Y-102573200D01*
X93321142Y-102525580D01*
X93559238Y-102525580D01*
X93654476Y-102573200D01*
X93702095Y-102620819D01*
X93749714Y-102716057D01*
X93749714Y-102811295D01*
X93702095Y-102954152D01*
X93130666Y-103525580D01*
X93749714Y-103525580D01*
X104702076Y-109434380D02*
X105368742Y-110434380D01*
X105368742Y-109434380D02*
X104702076Y-110434380D01*
X106273504Y-110434380D02*
X105702076Y-110434380D01*
X105987790Y-110434380D02*
X105987790Y-109434380D01*
X105892552Y-109577238D01*
X105797314Y-109672476D01*
X105702076Y-109720095D01*
X99822095Y-95210380D02*
X99822095Y-96019904D01*
X99869714Y-96115142D01*
X99917333Y-96162761D01*
X100012571Y-96210380D01*
X100203047Y-96210380D01*
X100298285Y-96162761D01*
X100345904Y-96115142D01*
X100393523Y-96019904D01*
X100393523Y-95210380D01*
X100774476Y-95210380D02*
X101393523Y-95210380D01*
X101060190Y-95591333D01*
X101203047Y-95591333D01*
X101298285Y-95638952D01*
X101345904Y-95686571D01*
X101393523Y-95781809D01*
X101393523Y-96019904D01*
X101345904Y-96115142D01*
X101298285Y-96162761D01*
X101203047Y-96210380D01*
X100917333Y-96210380D01*
X100822095Y-96162761D01*
X100774476Y-96115142D01*
X101414342Y-110231180D02*
X101081009Y-109754990D01*
X100842914Y-110231180D02*
X100842914Y-109231180D01*
X101223866Y-109231180D01*
X101319104Y-109278800D01*
X101366723Y-109326419D01*
X101414342Y-109421657D01*
X101414342Y-109564514D01*
X101366723Y-109659752D01*
X101319104Y-109707371D01*
X101223866Y-109754990D01*
X100842914Y-109754990D01*
X101795295Y-109326419D02*
X101842914Y-109278800D01*
X101938152Y-109231180D01*
X102176247Y-109231180D01*
X102271485Y-109278800D01*
X102319104Y-109326419D01*
X102366723Y-109421657D01*
X102366723Y-109516895D01*
X102319104Y-109659752D01*
X101747676Y-110231180D01*
X102366723Y-110231180D01*
X103271485Y-109231180D02*
X102795295Y-109231180D01*
X102747676Y-109707371D01*
X102795295Y-109659752D01*
X102890533Y-109612133D01*
X103128628Y-109612133D01*
X103223866Y-109659752D01*
X103271485Y-109707371D01*
X103319104Y-109802609D01*
X103319104Y-110040704D01*
X103271485Y-110135942D01*
X103223866Y-110183561D01*
X103128628Y-110231180D01*
X102890533Y-110231180D01*
X102795295Y-110183561D01*
X102747676Y-110135942D01*
X138043180Y-121394457D02*
X137566990Y-121727790D01*
X138043180Y-121965885D02*
X137043180Y-121965885D01*
X137043180Y-121584933D01*
X137090800Y-121489695D01*
X137138419Y-121442076D01*
X137233657Y-121394457D01*
X137376514Y-121394457D01*
X137471752Y-121442076D01*
X137519371Y-121489695D01*
X137566990Y-121584933D01*
X137566990Y-121965885D01*
X137138419Y-121013504D02*
X137090800Y-120965885D01*
X137043180Y-120870647D01*
X137043180Y-120632552D01*
X137090800Y-120537314D01*
X137138419Y-120489695D01*
X137233657Y-120442076D01*
X137328895Y-120442076D01*
X137471752Y-120489695D01*
X138043180Y-121061123D01*
X138043180Y-120442076D01*
X137376514Y-119584933D02*
X138043180Y-119584933D01*
X136995561Y-119823028D02*
X137709847Y-120061123D01*
X137709847Y-119442076D01*
X106799142Y-115565180D02*
X106465809Y-115088990D01*
X106227714Y-115565180D02*
X106227714Y-114565180D01*
X106608666Y-114565180D01*
X106703904Y-114612800D01*
X106751523Y-114660419D01*
X106799142Y-114755657D01*
X106799142Y-114898514D01*
X106751523Y-114993752D01*
X106703904Y-115041371D01*
X106608666Y-115088990D01*
X106227714Y-115088990D01*
X107180095Y-114660419D02*
X107227714Y-114612800D01*
X107322952Y-114565180D01*
X107561047Y-114565180D01*
X107656285Y-114612800D01*
X107703904Y-114660419D01*
X107751523Y-114755657D01*
X107751523Y-114850895D01*
X107703904Y-114993752D01*
X107132476Y-115565180D01*
X107751523Y-115565180D01*
X108084857Y-114565180D02*
X108703904Y-114565180D01*
X108370571Y-114946133D01*
X108513428Y-114946133D01*
X108608666Y-114993752D01*
X108656285Y-115041371D01*
X108703904Y-115136609D01*
X108703904Y-115374704D01*
X108656285Y-115469942D01*
X108608666Y-115517561D01*
X108513428Y-115565180D01*
X108227714Y-115565180D01*
X108132476Y-115517561D01*
X108084857Y-115469942D01*
X134716780Y-125204457D02*
X134240590Y-125537790D01*
X134716780Y-125775885D02*
X133716780Y-125775885D01*
X133716780Y-125394933D01*
X133764400Y-125299695D01*
X133812019Y-125252076D01*
X133907257Y-125204457D01*
X134050114Y-125204457D01*
X134145352Y-125252076D01*
X134192971Y-125299695D01*
X134240590Y-125394933D01*
X134240590Y-125775885D01*
X133812019Y-124823504D02*
X133764400Y-124775885D01*
X133716780Y-124680647D01*
X133716780Y-124442552D01*
X133764400Y-124347314D01*
X133812019Y-124299695D01*
X133907257Y-124252076D01*
X134002495Y-124252076D01*
X134145352Y-124299695D01*
X134716780Y-124871123D01*
X134716780Y-124252076D01*
X133812019Y-123871123D02*
X133764400Y-123823504D01*
X133716780Y-123728266D01*
X133716780Y-123490171D01*
X133764400Y-123394933D01*
X133812019Y-123347314D01*
X133907257Y-123299695D01*
X134002495Y-123299695D01*
X134145352Y-123347314D01*
X134716780Y-123918742D01*
X134716780Y-123299695D01*
X97604342Y-116631980D02*
X97271009Y-116155790D01*
X97032914Y-116631980D02*
X97032914Y-115631980D01*
X97413866Y-115631980D01*
X97509104Y-115679600D01*
X97556723Y-115727219D01*
X97604342Y-115822457D01*
X97604342Y-115965314D01*
X97556723Y-116060552D01*
X97509104Y-116108171D01*
X97413866Y-116155790D01*
X97032914Y-116155790D01*
X98556723Y-116631980D02*
X97985295Y-116631980D01*
X98271009Y-116631980D02*
X98271009Y-115631980D01*
X98175771Y-115774838D01*
X98080533Y-115870076D01*
X97985295Y-115917695D01*
X99413866Y-115965314D02*
X99413866Y-116631980D01*
X99175771Y-115584361D02*
X98937676Y-116298647D01*
X99556723Y-116298647D01*
X106940361Y-114136419D02*
X106845123Y-114088800D01*
X106749885Y-113993561D01*
X106607028Y-113850704D01*
X106511790Y-113803085D01*
X106416552Y-113803085D01*
X106464171Y-114041180D02*
X106368933Y-113993561D01*
X106273695Y-113898323D01*
X106226076Y-113707847D01*
X106226076Y-113374514D01*
X106273695Y-113184038D01*
X106368933Y-113088800D01*
X106464171Y-113041180D01*
X106654647Y-113041180D01*
X106749885Y-113088800D01*
X106845123Y-113184038D01*
X106892742Y-113374514D01*
X106892742Y-113707847D01*
X106845123Y-113898323D01*
X106749885Y-113993561D01*
X106654647Y-114041180D01*
X106464171Y-114041180D01*
X107797504Y-113041180D02*
X107321314Y-113041180D01*
X107273695Y-113517371D01*
X107321314Y-113469752D01*
X107416552Y-113422133D01*
X107654647Y-113422133D01*
X107749885Y-113469752D01*
X107797504Y-113517371D01*
X107845123Y-113612609D01*
X107845123Y-113850704D01*
X107797504Y-113945942D01*
X107749885Y-113993561D01*
X107654647Y-114041180D01*
X107416552Y-114041180D01*
X107321314Y-113993561D01*
X107273695Y-113945942D01*
X138164819Y-124504438D02*
X138117200Y-124599676D01*
X138021961Y-124694914D01*
X137879104Y-124837771D01*
X137831485Y-124933009D01*
X137831485Y-125028247D01*
X138069580Y-124980628D02*
X138021961Y-125075866D01*
X137926723Y-125171104D01*
X137736247Y-125218723D01*
X137402914Y-125218723D01*
X137212438Y-125171104D01*
X137117200Y-125075866D01*
X137069580Y-124980628D01*
X137069580Y-124790152D01*
X137117200Y-124694914D01*
X137212438Y-124599676D01*
X137402914Y-124552057D01*
X137736247Y-124552057D01*
X137926723Y-124599676D01*
X138021961Y-124694914D01*
X138069580Y-124790152D01*
X138069580Y-124980628D01*
X137402914Y-123694914D02*
X138069580Y-123694914D01*
X137021961Y-123933009D02*
X137736247Y-124171104D01*
X137736247Y-123552057D01*
X157705466Y-125334780D02*
X157705466Y-126049066D01*
X157657847Y-126191923D01*
X157562609Y-126287161D01*
X157419752Y-126334780D01*
X157324514Y-126334780D01*
X158657847Y-125334780D02*
X158181657Y-125334780D01*
X158134038Y-125810971D01*
X158181657Y-125763352D01*
X158276895Y-125715733D01*
X158514990Y-125715733D01*
X158610228Y-125763352D01*
X158657847Y-125810971D01*
X158705466Y-125906209D01*
X158705466Y-126144304D01*
X158657847Y-126239542D01*
X158610228Y-126287161D01*
X158514990Y-126334780D01*
X158276895Y-126334780D01*
X158181657Y-126287161D01*
X158134038Y-126239542D01*
X95526266Y-102474780D02*
X95526266Y-103189066D01*
X95478647Y-103331923D01*
X95383409Y-103427161D01*
X95240552Y-103474780D01*
X95145314Y-103474780D01*
X95907219Y-102474780D02*
X96526266Y-102474780D01*
X96192933Y-102855733D01*
X96335790Y-102855733D01*
X96431028Y-102903352D01*
X96478647Y-102950971D01*
X96526266Y-103046209D01*
X96526266Y-103284304D01*
X96478647Y-103379542D01*
X96431028Y-103427161D01*
X96335790Y-103474780D01*
X96050076Y-103474780D01*
X95954838Y-103427161D01*
X95907219Y-103379542D01*
X100477580Y-110485085D02*
X99477580Y-110485085D01*
X99477580Y-110246990D01*
X99525200Y-110104133D01*
X99620438Y-110008895D01*
X99715676Y-109961276D01*
X99906152Y-109913657D01*
X100049009Y-109913657D01*
X100239485Y-109961276D01*
X100334723Y-110008895D01*
X100429961Y-110104133D01*
X100477580Y-110246990D01*
X100477580Y-110485085D01*
X100477580Y-108961276D02*
X100477580Y-109532704D01*
X100477580Y-109246990D02*
X99477580Y-109246990D01*
X99620438Y-109342228D01*
X99715676Y-109437466D01*
X99763295Y-109532704D01*
X100477580Y-108008895D02*
X100477580Y-108580323D01*
X100477580Y-108294609D02*
X99477580Y-108294609D01*
X99620438Y-108389847D01*
X99715676Y-108485085D01*
X99763295Y-108580323D01*
X108170742Y-111761542D02*
X108123123Y-111809161D01*
X107980266Y-111856780D01*
X107885028Y-111856780D01*
X107742171Y-111809161D01*
X107646933Y-111713923D01*
X107599314Y-111618685D01*
X107551695Y-111428209D01*
X107551695Y-111285352D01*
X107599314Y-111094876D01*
X107646933Y-110999638D01*
X107742171Y-110904400D01*
X107885028Y-110856780D01*
X107980266Y-110856780D01*
X108123123Y-110904400D01*
X108170742Y-110952019D01*
X108551695Y-110952019D02*
X108599314Y-110904400D01*
X108694552Y-110856780D01*
X108932647Y-110856780D01*
X109027885Y-110904400D01*
X109075504Y-110952019D01*
X109123123Y-111047257D01*
X109123123Y-111142495D01*
X109075504Y-111285352D01*
X108504076Y-111856780D01*
X109123123Y-111856780D01*
X109504076Y-110952019D02*
X109551695Y-110904400D01*
X109646933Y-110856780D01*
X109885028Y-110856780D01*
X109980266Y-110904400D01*
X110027885Y-110952019D01*
X110075504Y-111047257D01*
X110075504Y-111142495D01*
X110027885Y-111285352D01*
X109456457Y-111856780D01*
X110075504Y-111856780D01*
X152611580Y-108937695D02*
X153421104Y-108937695D01*
X153516342Y-108890076D01*
X153563961Y-108842457D01*
X153611580Y-108747219D01*
X153611580Y-108556742D01*
X153563961Y-108461504D01*
X153516342Y-108413885D01*
X153421104Y-108366266D01*
X152611580Y-108366266D01*
X153611580Y-107366266D02*
X153611580Y-107937695D01*
X153611580Y-107651980D02*
X152611580Y-107651980D01*
X152754438Y-107747219D01*
X152849676Y-107842457D01*
X152897295Y-107937695D01*
X153611580Y-106413885D02*
X153611580Y-106985314D01*
X153611580Y-106699600D02*
X152611580Y-106699600D01*
X152754438Y-106794838D01*
X152849676Y-106890076D01*
X152897295Y-106985314D01*
X115163695Y-89063580D02*
X115163695Y-89873104D01*
X115211314Y-89968342D01*
X115258933Y-90015961D01*
X115354171Y-90063580D01*
X115544647Y-90063580D01*
X115639885Y-90015961D01*
X115687504Y-89968342D01*
X115735123Y-89873104D01*
X115735123Y-89063580D01*
X116354171Y-89492152D02*
X116258933Y-89444533D01*
X116211314Y-89396914D01*
X116163695Y-89301676D01*
X116163695Y-89254057D01*
X116211314Y-89158819D01*
X116258933Y-89111200D01*
X116354171Y-89063580D01*
X116544647Y-89063580D01*
X116639885Y-89111200D01*
X116687504Y-89158819D01*
X116735123Y-89254057D01*
X116735123Y-89301676D01*
X116687504Y-89396914D01*
X116639885Y-89444533D01*
X116544647Y-89492152D01*
X116354171Y-89492152D01*
X116258933Y-89539771D01*
X116211314Y-89587390D01*
X116163695Y-89682628D01*
X116163695Y-89873104D01*
X116211314Y-89968342D01*
X116258933Y-90015961D01*
X116354171Y-90063580D01*
X116544647Y-90063580D01*
X116639885Y-90015961D01*
X116687504Y-89968342D01*
X116735123Y-89873104D01*
X116735123Y-89682628D01*
X116687504Y-89587390D01*
X116639885Y-89539771D01*
X116544647Y-89492152D01*
X151557980Y-111996457D02*
X151081790Y-112329790D01*
X151557980Y-112567885D02*
X150557980Y-112567885D01*
X150557980Y-112186933D01*
X150605600Y-112091695D01*
X150653219Y-112044076D01*
X150748457Y-111996457D01*
X150891314Y-111996457D01*
X150986552Y-112044076D01*
X151034171Y-112091695D01*
X151081790Y-112186933D01*
X151081790Y-112567885D01*
X151557980Y-111044076D02*
X151557980Y-111615504D01*
X151557980Y-111329790D02*
X150557980Y-111329790D01*
X150700838Y-111425028D01*
X150796076Y-111520266D01*
X150843695Y-111615504D01*
X150557980Y-110186933D02*
X150557980Y-110377409D01*
X150605600Y-110472647D01*
X150653219Y-110520266D01*
X150796076Y-110615504D01*
X150986552Y-110663123D01*
X151367504Y-110663123D01*
X151462742Y-110615504D01*
X151510361Y-110567885D01*
X151557980Y-110472647D01*
X151557980Y-110282171D01*
X151510361Y-110186933D01*
X151462742Y-110139314D01*
X151367504Y-110091695D01*
X151129409Y-110091695D01*
X151034171Y-110139314D01*
X150986552Y-110186933D01*
X150938933Y-110282171D01*
X150938933Y-110472647D01*
X150986552Y-110567885D01*
X151034171Y-110615504D01*
X151129409Y-110663123D01*
X151531580Y-108389657D02*
X151055390Y-108722990D01*
X151531580Y-108961085D02*
X150531580Y-108961085D01*
X150531580Y-108580133D01*
X150579200Y-108484895D01*
X150626819Y-108437276D01*
X150722057Y-108389657D01*
X150864914Y-108389657D01*
X150960152Y-108437276D01*
X151007771Y-108484895D01*
X151055390Y-108580133D01*
X151055390Y-108961085D01*
X151531580Y-107437276D02*
X151531580Y-108008704D01*
X151531580Y-107722990D02*
X150531580Y-107722990D01*
X150674438Y-107818228D01*
X150769676Y-107913466D01*
X150817295Y-108008704D01*
X150531580Y-106532514D02*
X150531580Y-107008704D01*
X151007771Y-107056323D01*
X150960152Y-107008704D01*
X150912533Y-106913466D01*
X150912533Y-106675371D01*
X150960152Y-106580133D01*
X151007771Y-106532514D01*
X151103009Y-106484895D01*
X151341104Y-106484895D01*
X151436342Y-106532514D01*
X151483961Y-106580133D01*
X151531580Y-106675371D01*
X151531580Y-106913466D01*
X151483961Y-107008704D01*
X151436342Y-107056323D01*
X120515142Y-93822780D02*
X120181809Y-93346590D01*
X119943714Y-93822780D02*
X119943714Y-92822780D01*
X120324666Y-92822780D01*
X120419904Y-92870400D01*
X120467523Y-92918019D01*
X120515142Y-93013257D01*
X120515142Y-93156114D01*
X120467523Y-93251352D01*
X120419904Y-93298971D01*
X120324666Y-93346590D01*
X119943714Y-93346590D01*
X121467523Y-93822780D02*
X120896095Y-93822780D01*
X121181809Y-93822780D02*
X121181809Y-92822780D01*
X121086571Y-92965638D01*
X120991333Y-93060876D01*
X120896095Y-93108495D01*
X121848476Y-92918019D02*
X121896095Y-92870400D01*
X121991333Y-92822780D01*
X122229428Y-92822780D01*
X122324666Y-92870400D01*
X122372285Y-92918019D01*
X122419904Y-93013257D01*
X122419904Y-93108495D01*
X122372285Y-93251352D01*
X121800857Y-93822780D01*
X122419904Y-93822780D01*
X118483142Y-90215980D02*
X118149809Y-89739790D01*
X117911714Y-90215980D02*
X117911714Y-89215980D01*
X118292666Y-89215980D01*
X118387904Y-89263600D01*
X118435523Y-89311219D01*
X118483142Y-89406457D01*
X118483142Y-89549314D01*
X118435523Y-89644552D01*
X118387904Y-89692171D01*
X118292666Y-89739790D01*
X117911714Y-89739790D01*
X119435523Y-90215980D02*
X118864095Y-90215980D01*
X119149809Y-90215980D02*
X119149809Y-89215980D01*
X119054571Y-89358838D01*
X118959333Y-89454076D01*
X118864095Y-89501695D01*
X120387904Y-90215980D02*
X119816476Y-90215980D01*
X120102190Y-90215980D02*
X120102190Y-89215980D01*
X120006952Y-89358838D01*
X119911714Y-89454076D01*
X119816476Y-89501695D01*
X100499942Y-93981542D02*
X100452323Y-94029161D01*
X100309466Y-94076780D01*
X100214228Y-94076780D01*
X100071371Y-94029161D01*
X99976133Y-93933923D01*
X99928514Y-93838685D01*
X99880895Y-93648209D01*
X99880895Y-93505352D01*
X99928514Y-93314876D01*
X99976133Y-93219638D01*
X100071371Y-93124400D01*
X100214228Y-93076780D01*
X100309466Y-93076780D01*
X100452323Y-93124400D01*
X100499942Y-93172019D01*
X100833276Y-93076780D02*
X101452323Y-93076780D01*
X101118990Y-93457733D01*
X101261847Y-93457733D01*
X101357085Y-93505352D01*
X101404704Y-93552971D01*
X101452323Y-93648209D01*
X101452323Y-93886304D01*
X101404704Y-93981542D01*
X101357085Y-94029161D01*
X101261847Y-94076780D01*
X100976133Y-94076780D01*
X100880895Y-94029161D01*
X100833276Y-93981542D01*
X102404704Y-94076780D02*
X101833276Y-94076780D01*
X102118990Y-94076780D02*
X102118990Y-93076780D01*
X102023752Y-93219638D01*
X101928514Y-93314876D01*
X101833276Y-93362495D01*
X115790742Y-53263942D02*
X115743123Y-53311561D01*
X115600266Y-53359180D01*
X115505028Y-53359180D01*
X115362171Y-53311561D01*
X115266933Y-53216323D01*
X115219314Y-53121085D01*
X115171695Y-52930609D01*
X115171695Y-52787752D01*
X115219314Y-52597276D01*
X115266933Y-52502038D01*
X115362171Y-52406800D01*
X115505028Y-52359180D01*
X115600266Y-52359180D01*
X115743123Y-52406800D01*
X115790742Y-52454419D01*
X116124076Y-52359180D02*
X116743123Y-52359180D01*
X116409790Y-52740133D01*
X116552647Y-52740133D01*
X116647885Y-52787752D01*
X116695504Y-52835371D01*
X116743123Y-52930609D01*
X116743123Y-53168704D01*
X116695504Y-53263942D01*
X116647885Y-53311561D01*
X116552647Y-53359180D01*
X116266933Y-53359180D01*
X116171695Y-53311561D01*
X116124076Y-53263942D01*
X117600266Y-52692514D02*
X117600266Y-53359180D01*
X117362171Y-52311561D02*
X117124076Y-53025847D01*
X117743123Y-53025847D01*
D19*
X99114670Y-84460210D02*
X99739752Y-84460210D01*
X99813291Y-84423440D01*
X99850060Y-84386671D01*
X99886830Y-84313132D01*
X99886830Y-84166053D01*
X99850060Y-84092514D01*
X99813291Y-84055745D01*
X99739752Y-84018975D01*
X99114670Y-84018975D01*
X99886830Y-83246815D02*
X99886830Y-83688050D01*
X99886830Y-83467433D02*
X99114670Y-83467433D01*
X99224979Y-83540972D01*
X99298518Y-83614511D01*
X99335287Y-83688050D01*
X99188209Y-82952659D02*
X99151440Y-82915890D01*
X99114670Y-82842351D01*
X99114670Y-82658503D01*
X99151440Y-82584964D01*
X99188209Y-82548194D01*
X99261748Y-82511425D01*
X99335287Y-82511425D01*
X99445596Y-82548194D01*
X99886830Y-82989429D01*
X99886830Y-82511425D01*
D11*
X140276342Y-69749942D02*
X140228723Y-69797561D01*
X140085866Y-69845180D01*
X139990628Y-69845180D01*
X139847771Y-69797561D01*
X139752533Y-69702323D01*
X139704914Y-69607085D01*
X139657295Y-69416609D01*
X139657295Y-69273752D01*
X139704914Y-69083276D01*
X139752533Y-68988038D01*
X139847771Y-68892800D01*
X139990628Y-68845180D01*
X140085866Y-68845180D01*
X140228723Y-68892800D01*
X140276342Y-68940419D01*
X140609676Y-68845180D02*
X141228723Y-68845180D01*
X140895390Y-69226133D01*
X141038247Y-69226133D01*
X141133485Y-69273752D01*
X141181104Y-69321371D01*
X141228723Y-69416609D01*
X141228723Y-69654704D01*
X141181104Y-69749942D01*
X141133485Y-69797561D01*
X141038247Y-69845180D01*
X140752533Y-69845180D01*
X140657295Y-69797561D01*
X140609676Y-69749942D01*
X141847771Y-68845180D02*
X141943009Y-68845180D01*
X142038247Y-68892800D01*
X142085866Y-68940419D01*
X142133485Y-69035657D01*
X142181104Y-69226133D01*
X142181104Y-69464228D01*
X142133485Y-69654704D01*
X142085866Y-69749942D01*
X142038247Y-69797561D01*
X141943009Y-69845180D01*
X141847771Y-69845180D01*
X141752533Y-69797561D01*
X141704914Y-69749942D01*
X141657295Y-69654704D01*
X141609676Y-69464228D01*
X141609676Y-69226133D01*
X141657295Y-69035657D01*
X141704914Y-68940419D01*
X141752533Y-68892800D01*
X141847771Y-68845180D01*
D18*
X147948398Y-104762453D02*
X148520226Y-104762453D01*
X148634592Y-104800574D01*
X148710835Y-104876818D01*
X148748957Y-104991184D01*
X148748957Y-105067427D01*
X148024642Y-104419356D02*
X147986520Y-104381234D01*
X147948398Y-104304990D01*
X147948398Y-104114381D01*
X147986520Y-104038137D01*
X148024642Y-104000015D01*
X148100886Y-103961894D01*
X148177129Y-103961894D01*
X148291495Y-104000015D01*
X148748957Y-104457478D01*
X148748957Y-103961894D01*
D11*
X129946495Y-124267980D02*
X129946495Y-125077504D01*
X129994114Y-125172742D01*
X130041733Y-125220361D01*
X130136971Y-125267980D01*
X130327447Y-125267980D01*
X130422685Y-125220361D01*
X130470304Y-125172742D01*
X130517923Y-125077504D01*
X130517923Y-124267980D01*
X130898876Y-124267980D02*
X131565542Y-124267980D01*
X131136971Y-125267980D01*
X129946495Y-119137180D02*
X129946495Y-119946704D01*
X129994114Y-120041942D01*
X130041733Y-120089561D01*
X130136971Y-120137180D01*
X130327447Y-120137180D01*
X130422685Y-120089561D01*
X130470304Y-120041942D01*
X130517923Y-119946704D01*
X130517923Y-119137180D01*
X131422685Y-119137180D02*
X131232209Y-119137180D01*
X131136971Y-119184800D01*
X131089352Y-119232419D01*
X130994114Y-119375276D01*
X130946495Y-119565752D01*
X130946495Y-119946704D01*
X130994114Y-120041942D01*
X131041733Y-120089561D01*
X131136971Y-120137180D01*
X131327447Y-120137180D01*
X131422685Y-120089561D01*
X131470304Y-120041942D01*
X131517923Y-119946704D01*
X131517923Y-119708609D01*
X131470304Y-119613371D01*
X131422685Y-119565752D01*
X131327447Y-119518133D01*
X131136971Y-119518133D01*
X131041733Y-119565752D01*
X130994114Y-119613371D01*
X130946495Y-119708609D01*
X129844895Y-113904780D02*
X129844895Y-114714304D01*
X129892514Y-114809542D01*
X129940133Y-114857161D01*
X130035371Y-114904780D01*
X130225847Y-114904780D01*
X130321085Y-114857161D01*
X130368704Y-114809542D01*
X130416323Y-114714304D01*
X130416323Y-113904780D01*
X131368704Y-113904780D02*
X130892514Y-113904780D01*
X130844895Y-114380971D01*
X130892514Y-114333352D01*
X130987752Y-114285733D01*
X131225847Y-114285733D01*
X131321085Y-114333352D01*
X131368704Y-114380971D01*
X131416323Y-114476209D01*
X131416323Y-114714304D01*
X131368704Y-114809542D01*
X131321085Y-114857161D01*
X131225847Y-114904780D01*
X130987752Y-114904780D01*
X130892514Y-114857161D01*
X130844895Y-114809542D01*
X143584704Y-119019580D02*
X143584704Y-118019580D01*
X143822800Y-118019580D01*
X143965657Y-118067200D01*
X144060895Y-118162438D01*
X144108514Y-118257676D01*
X144156133Y-118448152D01*
X144156133Y-118591009D01*
X144108514Y-118781485D01*
X144060895Y-118876723D01*
X143965657Y-118971961D01*
X143822800Y-119019580D01*
X143584704Y-119019580D01*
X145013276Y-118352914D02*
X145013276Y-119019580D01*
X144775180Y-117971961D02*
X144537085Y-118686247D01*
X145156133Y-118686247D01*
X129913142Y-117349542D02*
X129865523Y-117397161D01*
X129722666Y-117444780D01*
X129627428Y-117444780D01*
X129484571Y-117397161D01*
X129389333Y-117301923D01*
X129341714Y-117206685D01*
X129294095Y-117016209D01*
X129294095Y-116873352D01*
X129341714Y-116682876D01*
X129389333Y-116587638D01*
X129484571Y-116492400D01*
X129627428Y-116444780D01*
X129722666Y-116444780D01*
X129865523Y-116492400D01*
X129913142Y-116540019D01*
X130865523Y-117444780D02*
X130294095Y-117444780D01*
X130579809Y-117444780D02*
X130579809Y-116444780D01*
X130484571Y-116587638D01*
X130389333Y-116682876D01*
X130294095Y-116730495D01*
X131341714Y-117444780D02*
X131532190Y-117444780D01*
X131627428Y-117397161D01*
X131675047Y-117349542D01*
X131770285Y-117206685D01*
X131817904Y-117016209D01*
X131817904Y-116635257D01*
X131770285Y-116540019D01*
X131722666Y-116492400D01*
X131627428Y-116444780D01*
X131436952Y-116444780D01*
X131341714Y-116492400D01*
X131294095Y-116540019D01*
X131246476Y-116635257D01*
X131246476Y-116873352D01*
X131294095Y-116968590D01*
X131341714Y-117016209D01*
X131436952Y-117063828D01*
X131627428Y-117063828D01*
X131722666Y-117016209D01*
X131770285Y-116968590D01*
X131817904Y-116873352D01*
X107561142Y-125883942D02*
X107513523Y-125931561D01*
X107370666Y-125979180D01*
X107275428Y-125979180D01*
X107132571Y-125931561D01*
X107037333Y-125836323D01*
X106989714Y-125741085D01*
X106942095Y-125550609D01*
X106942095Y-125407752D01*
X106989714Y-125217276D01*
X107037333Y-125122038D01*
X107132571Y-125026800D01*
X107275428Y-124979180D01*
X107370666Y-124979180D01*
X107513523Y-125026800D01*
X107561142Y-125074419D01*
X107942095Y-125074419D02*
X107989714Y-125026800D01*
X108084952Y-124979180D01*
X108323047Y-124979180D01*
X108418285Y-125026800D01*
X108465904Y-125074419D01*
X108513523Y-125169657D01*
X108513523Y-125264895D01*
X108465904Y-125407752D01*
X107894476Y-125979180D01*
X108513523Y-125979180D01*
X109132571Y-124979180D02*
X109227809Y-124979180D01*
X109323047Y-125026800D01*
X109370666Y-125074419D01*
X109418285Y-125169657D01*
X109465904Y-125360133D01*
X109465904Y-125598228D01*
X109418285Y-125788704D01*
X109370666Y-125883942D01*
X109323047Y-125931561D01*
X109227809Y-125979180D01*
X109132571Y-125979180D01*
X109037333Y-125931561D01*
X108989714Y-125883942D01*
X108942095Y-125788704D01*
X108894476Y-125598228D01*
X108894476Y-125360133D01*
X108942095Y-125169657D01*
X108989714Y-125074419D01*
X109037333Y-125026800D01*
X109132571Y-124979180D01*
X130708495Y-98359980D02*
X130708495Y-99169504D01*
X130756114Y-99264742D01*
X130803733Y-99312361D01*
X130898971Y-99359980D01*
X131089447Y-99359980D01*
X131184685Y-99312361D01*
X131232304Y-99264742D01*
X131279923Y-99169504D01*
X131279923Y-98359980D01*
X131708495Y-98455219D02*
X131756114Y-98407600D01*
X131851352Y-98359980D01*
X132089447Y-98359980D01*
X132184685Y-98407600D01*
X132232304Y-98455219D01*
X132279923Y-98550457D01*
X132279923Y-98645695D01*
X132232304Y-98788552D01*
X131660876Y-99359980D01*
X132279923Y-99359980D01*
X107503980Y-94151295D02*
X108313504Y-94151295D01*
X108408742Y-94103676D01*
X108456361Y-94056057D01*
X108503980Y-93960819D01*
X108503980Y-93770342D01*
X108456361Y-93675104D01*
X108408742Y-93627485D01*
X108313504Y-93579866D01*
X107503980Y-93579866D01*
X108503980Y-92579866D02*
X108503980Y-93151295D01*
X108503980Y-92865580D02*
X107503980Y-92865580D01*
X107646838Y-92960819D01*
X107742076Y-93056057D01*
X107789695Y-93151295D01*
X107503980Y-91960819D02*
X107503980Y-91865580D01*
X107551600Y-91770342D01*
X107599219Y-91722723D01*
X107694457Y-91675104D01*
X107884933Y-91627485D01*
X108123028Y-91627485D01*
X108313504Y-91675104D01*
X108408742Y-91722723D01*
X108456361Y-91770342D01*
X108503980Y-91865580D01*
X108503980Y-91960819D01*
X108456361Y-92056057D01*
X108408742Y-92103676D01*
X108313504Y-92151295D01*
X108123028Y-92198914D01*
X107884933Y-92198914D01*
X107694457Y-92151295D01*
X107599219Y-92103676D01*
X107551600Y-92056057D01*
X107503980Y-91960819D01*
X106273695Y-118781580D02*
X106273695Y-119591104D01*
X106321314Y-119686342D01*
X106368933Y-119733961D01*
X106464171Y-119781580D01*
X106654647Y-119781580D01*
X106749885Y-119733961D01*
X106797504Y-119686342D01*
X106845123Y-119591104D01*
X106845123Y-118781580D01*
X107749885Y-119114914D02*
X107749885Y-119781580D01*
X107511790Y-118733961D02*
X107273695Y-119448247D01*
X107892742Y-119448247D01*
X108831142Y-52420780D02*
X108497809Y-51944590D01*
X108259714Y-52420780D02*
X108259714Y-51420780D01*
X108640666Y-51420780D01*
X108735904Y-51468400D01*
X108783523Y-51516019D01*
X108831142Y-51611257D01*
X108831142Y-51754114D01*
X108783523Y-51849352D01*
X108735904Y-51896971D01*
X108640666Y-51944590D01*
X108259714Y-51944590D01*
X109212095Y-51516019D02*
X109259714Y-51468400D01*
X109354952Y-51420780D01*
X109593047Y-51420780D01*
X109688285Y-51468400D01*
X109735904Y-51516019D01*
X109783523Y-51611257D01*
X109783523Y-51706495D01*
X109735904Y-51849352D01*
X109164476Y-52420780D01*
X109783523Y-52420780D01*
X110735904Y-52420780D02*
X110164476Y-52420780D01*
X110450190Y-52420780D02*
X110450190Y-51420780D01*
X110354952Y-51563638D01*
X110259714Y-51658876D01*
X110164476Y-51706495D01*
X112183942Y-52420780D02*
X111850609Y-51944590D01*
X111612514Y-52420780D02*
X111612514Y-51420780D01*
X111993466Y-51420780D01*
X112088704Y-51468400D01*
X112136323Y-51516019D01*
X112183942Y-51611257D01*
X112183942Y-51754114D01*
X112136323Y-51849352D01*
X112088704Y-51896971D01*
X111993466Y-51944590D01*
X111612514Y-51944590D01*
X112564895Y-51516019D02*
X112612514Y-51468400D01*
X112707752Y-51420780D01*
X112945847Y-51420780D01*
X113041085Y-51468400D01*
X113088704Y-51516019D01*
X113136323Y-51611257D01*
X113136323Y-51706495D01*
X113088704Y-51849352D01*
X112517276Y-52420780D01*
X113136323Y-52420780D01*
X113755371Y-51420780D02*
X113850609Y-51420780D01*
X113945847Y-51468400D01*
X113993466Y-51516019D01*
X114041085Y-51611257D01*
X114088704Y-51801733D01*
X114088704Y-52039828D01*
X114041085Y-52230304D01*
X113993466Y-52325542D01*
X113945847Y-52373161D01*
X113850609Y-52420780D01*
X113755371Y-52420780D01*
X113660133Y-52373161D01*
X113612514Y-52325542D01*
X113564895Y-52230304D01*
X113517276Y-52039828D01*
X113517276Y-51801733D01*
X113564895Y-51611257D01*
X113612514Y-51516019D01*
X113660133Y-51468400D01*
X113755371Y-51420780D01*
X147845542Y-114447580D02*
X147512209Y-113971390D01*
X147274114Y-114447580D02*
X147274114Y-113447580D01*
X147655066Y-113447580D01*
X147750304Y-113495200D01*
X147797923Y-113542819D01*
X147845542Y-113638057D01*
X147845542Y-113780914D01*
X147797923Y-113876152D01*
X147750304Y-113923771D01*
X147655066Y-113971390D01*
X147274114Y-113971390D01*
X148797923Y-114447580D02*
X148226495Y-114447580D01*
X148512209Y-114447580D02*
X148512209Y-113447580D01*
X148416971Y-113590438D01*
X148321733Y-113685676D01*
X148226495Y-113733295D01*
X149131257Y-113447580D02*
X149797923Y-113447580D01*
X149369352Y-114447580D01*
X101433333Y-123489980D02*
X101100000Y-123013790D01*
X100861904Y-123489980D02*
X100861904Y-122489980D01*
X101242857Y-122489980D01*
X101338095Y-122537600D01*
X101385714Y-122585219D01*
X101433333Y-122680457D01*
X101433333Y-122823314D01*
X101385714Y-122918552D01*
X101338095Y-122966171D01*
X101242857Y-123013790D01*
X100861904Y-123013790D01*
X102338095Y-122489980D02*
X101861904Y-122489980D01*
X101814285Y-122966171D01*
X101861904Y-122918552D01*
X101957142Y-122870933D01*
X102195238Y-122870933D01*
X102290476Y-122918552D01*
X102338095Y-122966171D01*
X102385714Y-123061409D01*
X102385714Y-123299504D01*
X102338095Y-123394742D01*
X102290476Y-123442361D01*
X102195238Y-123489980D01*
X101957142Y-123489980D01*
X101861904Y-123442361D01*
X101814285Y-123394742D01*
X107783333Y-123693180D02*
X107450000Y-123216990D01*
X107211904Y-123693180D02*
X107211904Y-122693180D01*
X107592857Y-122693180D01*
X107688095Y-122740800D01*
X107735714Y-122788419D01*
X107783333Y-122883657D01*
X107783333Y-123026514D01*
X107735714Y-123121752D01*
X107688095Y-123169371D01*
X107592857Y-123216990D01*
X107211904Y-123216990D01*
X108164285Y-122788419D02*
X108211904Y-122740800D01*
X108307142Y-122693180D01*
X108545238Y-122693180D01*
X108640476Y-122740800D01*
X108688095Y-122788419D01*
X108735714Y-122883657D01*
X108735714Y-122978895D01*
X108688095Y-123121752D01*
X108116666Y-123693180D01*
X108735714Y-123693180D01*
X115119161Y-56630819D02*
X115023923Y-56583200D01*
X114928685Y-56487961D01*
X114785828Y-56345104D01*
X114690590Y-56297485D01*
X114595352Y-56297485D01*
X114642971Y-56535580D02*
X114547733Y-56487961D01*
X114452495Y-56392723D01*
X114404876Y-56202247D01*
X114404876Y-55868914D01*
X114452495Y-55678438D01*
X114547733Y-55583200D01*
X114642971Y-55535580D01*
X114833447Y-55535580D01*
X114928685Y-55583200D01*
X115023923Y-55678438D01*
X115071542Y-55868914D01*
X115071542Y-56202247D01*
X115023923Y-56392723D01*
X114928685Y-56487961D01*
X114833447Y-56535580D01*
X114642971Y-56535580D01*
X115404876Y-55535580D02*
X116023923Y-55535580D01*
X115690590Y-55916533D01*
X115833447Y-55916533D01*
X115928685Y-55964152D01*
X115976304Y-56011771D01*
X116023923Y-56107009D01*
X116023923Y-56345104D01*
X115976304Y-56440342D01*
X115928685Y-56487961D01*
X115833447Y-56535580D01*
X115547733Y-56535580D01*
X115452495Y-56487961D01*
X115404876Y-56440342D01*
X92683104Y-125979180D02*
X92683104Y-124979180D01*
X92921200Y-124979180D01*
X93064057Y-125026800D01*
X93159295Y-125122038D01*
X93206914Y-125217276D01*
X93254533Y-125407752D01*
X93254533Y-125550609D01*
X93206914Y-125741085D01*
X93159295Y-125836323D01*
X93064057Y-125931561D01*
X92921200Y-125979180D01*
X92683104Y-125979180D01*
X94206914Y-125979180D02*
X93635485Y-125979180D01*
X93921200Y-125979180D02*
X93921200Y-124979180D01*
X93825961Y-125122038D01*
X93730723Y-125217276D01*
X93635485Y-125264895D01*
X113225342Y-91035142D02*
X113177723Y-91082761D01*
X113034866Y-91130380D01*
X112939628Y-91130380D01*
X112796771Y-91082761D01*
X112701533Y-90987523D01*
X112653914Y-90892285D01*
X112606295Y-90701809D01*
X112606295Y-90558952D01*
X112653914Y-90368476D01*
X112701533Y-90273238D01*
X112796771Y-90178000D01*
X112939628Y-90130380D01*
X113034866Y-90130380D01*
X113177723Y-90178000D01*
X113225342Y-90225619D01*
X113606295Y-90225619D02*
X113653914Y-90178000D01*
X113749152Y-90130380D01*
X113987247Y-90130380D01*
X114082485Y-90178000D01*
X114130104Y-90225619D01*
X114177723Y-90320857D01*
X114177723Y-90416095D01*
X114130104Y-90558952D01*
X113558676Y-91130380D01*
X114177723Y-91130380D01*
X114749152Y-90558952D02*
X114653914Y-90511333D01*
X114606295Y-90463714D01*
X114558676Y-90368476D01*
X114558676Y-90320857D01*
X114606295Y-90225619D01*
X114653914Y-90178000D01*
X114749152Y-90130380D01*
X114939628Y-90130380D01*
X115034866Y-90178000D01*
X115082485Y-90225619D01*
X115130104Y-90320857D01*
X115130104Y-90368476D01*
X115082485Y-90463714D01*
X115034866Y-90511333D01*
X114939628Y-90558952D01*
X114749152Y-90558952D01*
X114653914Y-90606571D01*
X114606295Y-90654190D01*
X114558676Y-90749428D01*
X114558676Y-90939904D01*
X114606295Y-91035142D01*
X114653914Y-91082761D01*
X114749152Y-91130380D01*
X114939628Y-91130380D01*
X115034866Y-91082761D01*
X115082485Y-91035142D01*
X115130104Y-90939904D01*
X115130104Y-90749428D01*
X115082485Y-90654190D01*
X115034866Y-90606571D01*
X114939628Y-90558952D01*
X151198342Y-102922342D02*
X151150723Y-102969961D01*
X151007866Y-103017580D01*
X150912628Y-103017580D01*
X150769771Y-102969961D01*
X150674533Y-102874723D01*
X150626914Y-102779485D01*
X150579295Y-102589009D01*
X150579295Y-102446152D01*
X150626914Y-102255676D01*
X150674533Y-102160438D01*
X150769771Y-102065200D01*
X150912628Y-102017580D01*
X151007866Y-102017580D01*
X151150723Y-102065200D01*
X151198342Y-102112819D01*
X151579295Y-102112819D02*
X151626914Y-102065200D01*
X151722152Y-102017580D01*
X151960247Y-102017580D01*
X152055485Y-102065200D01*
X152103104Y-102112819D01*
X152150723Y-102208057D01*
X152150723Y-102303295D01*
X152103104Y-102446152D01*
X151531676Y-103017580D01*
X152150723Y-103017580D01*
X152626914Y-103017580D02*
X152817390Y-103017580D01*
X152912628Y-102969961D01*
X152960247Y-102922342D01*
X153055485Y-102779485D01*
X153103104Y-102589009D01*
X153103104Y-102208057D01*
X153055485Y-102112819D01*
X153007866Y-102065200D01*
X152912628Y-102017580D01*
X152722152Y-102017580D01*
X152626914Y-102065200D01*
X152579295Y-102112819D01*
X152531676Y-102208057D01*
X152531676Y-102446152D01*
X152579295Y-102541390D01*
X152626914Y-102589009D01*
X152722152Y-102636628D01*
X152912628Y-102636628D01*
X153007866Y-102589009D01*
X153055485Y-102541390D01*
X153103104Y-102446152D01*
X121378742Y-101652342D02*
X121331123Y-101699961D01*
X121188266Y-101747580D01*
X121093028Y-101747580D01*
X120950171Y-101699961D01*
X120854933Y-101604723D01*
X120807314Y-101509485D01*
X120759695Y-101319009D01*
X120759695Y-101176152D01*
X120807314Y-100985676D01*
X120854933Y-100890438D01*
X120950171Y-100795200D01*
X121093028Y-100747580D01*
X121188266Y-100747580D01*
X121331123Y-100795200D01*
X121378742Y-100842819D01*
X122331123Y-101747580D02*
X121759695Y-101747580D01*
X122045409Y-101747580D02*
X122045409Y-100747580D01*
X121950171Y-100890438D01*
X121854933Y-100985676D01*
X121759695Y-101033295D01*
X122664457Y-100747580D02*
X123331123Y-100747580D01*
X122902552Y-101747580D01*
X123817142Y-97740742D02*
X123769523Y-97788361D01*
X123626666Y-97835980D01*
X123531428Y-97835980D01*
X123388571Y-97788361D01*
X123293333Y-97693123D01*
X123245714Y-97597885D01*
X123198095Y-97407409D01*
X123198095Y-97264552D01*
X123245714Y-97074076D01*
X123293333Y-96978838D01*
X123388571Y-96883600D01*
X123531428Y-96835980D01*
X123626666Y-96835980D01*
X123769523Y-96883600D01*
X123817142Y-96931219D01*
X124769523Y-97835980D02*
X124198095Y-97835980D01*
X124483809Y-97835980D02*
X124483809Y-96835980D01*
X124388571Y-96978838D01*
X124293333Y-97074076D01*
X124198095Y-97121695D01*
X125626666Y-97169314D02*
X125626666Y-97835980D01*
X125388571Y-96788361D02*
X125150476Y-97502647D01*
X125769523Y-97502647D01*
X152145904Y-71471980D02*
X152145904Y-70471980D01*
X152717333Y-71471980D02*
X152288761Y-70900552D01*
X152717333Y-70471980D02*
X152145904Y-71043409D01*
X153669714Y-71471980D02*
X153098285Y-71471980D01*
X153384000Y-71471980D02*
X153384000Y-70471980D01*
X153288761Y-70614838D01*
X153193523Y-70710076D01*
X153098285Y-70757695D01*
X95627866Y-74839580D02*
X95627866Y-75553866D01*
X95580247Y-75696723D01*
X95485009Y-75791961D01*
X95342152Y-75839580D01*
X95246914Y-75839580D01*
X96532628Y-74839580D02*
X96342152Y-74839580D01*
X96246914Y-74887200D01*
X96199295Y-74934819D01*
X96104057Y-75077676D01*
X96056438Y-75268152D01*
X96056438Y-75649104D01*
X96104057Y-75744342D01*
X96151676Y-75791961D01*
X96246914Y-75839580D01*
X96437390Y-75839580D01*
X96532628Y-75791961D01*
X96580247Y-75744342D01*
X96627866Y-75649104D01*
X96627866Y-75411009D01*
X96580247Y-75315771D01*
X96532628Y-75268152D01*
X96437390Y-75220533D01*
X96246914Y-75220533D01*
X96151676Y-75268152D01*
X96104057Y-75315771D01*
X96056438Y-75411009D01*
X117079733Y-56484780D02*
X116603542Y-56484780D01*
X116603542Y-55484780D01*
X117936876Y-56484780D02*
X117365447Y-56484780D01*
X117651161Y-56484780D02*
X117651161Y-55484780D01*
X117555923Y-55627638D01*
X117460685Y-55722876D01*
X117365447Y-55770495D01*
X98293180Y-57691257D02*
X97816990Y-58024590D01*
X98293180Y-58262685D02*
X97293180Y-58262685D01*
X97293180Y-57881733D01*
X97340800Y-57786495D01*
X97388419Y-57738876D01*
X97483657Y-57691257D01*
X97626514Y-57691257D01*
X97721752Y-57738876D01*
X97769371Y-57786495D01*
X97816990Y-57881733D01*
X97816990Y-58262685D01*
X98293180Y-56738876D02*
X98293180Y-57310304D01*
X98293180Y-57024590D02*
X97293180Y-57024590D01*
X97436038Y-57119828D01*
X97531276Y-57215066D01*
X97578895Y-57310304D01*
X98293180Y-56262685D02*
X98293180Y-56072209D01*
X98245561Y-55976971D01*
X98197942Y-55929352D01*
X98055085Y-55834114D01*
X97864609Y-55786495D01*
X97483657Y-55786495D01*
X97388419Y-55834114D01*
X97340800Y-55881733D01*
X97293180Y-55976971D01*
X97293180Y-56167447D01*
X97340800Y-56262685D01*
X97388419Y-56310304D01*
X97483657Y-56357923D01*
X97721752Y-56357923D01*
X97816990Y-56310304D01*
X97864609Y-56262685D01*
X97912228Y-56167447D01*
X97912228Y-55976971D01*
X97864609Y-55881733D01*
X97816990Y-55834114D01*
X97721752Y-55786495D01*
X94607142Y-96521542D02*
X94559523Y-96569161D01*
X94416666Y-96616780D01*
X94321428Y-96616780D01*
X94178571Y-96569161D01*
X94083333Y-96473923D01*
X94035714Y-96378685D01*
X93988095Y-96188209D01*
X93988095Y-96045352D01*
X94035714Y-95854876D01*
X94083333Y-95759638D01*
X94178571Y-95664400D01*
X94321428Y-95616780D01*
X94416666Y-95616780D01*
X94559523Y-95664400D01*
X94607142Y-95712019D01*
X95559523Y-96616780D02*
X94988095Y-96616780D01*
X95273809Y-96616780D02*
X95273809Y-95616780D01*
X95178571Y-95759638D01*
X95083333Y-95854876D01*
X94988095Y-95902495D01*
X96416666Y-95616780D02*
X96226190Y-95616780D01*
X96130952Y-95664400D01*
X96083333Y-95712019D01*
X95988095Y-95854876D01*
X95940476Y-96045352D01*
X95940476Y-96426304D01*
X95988095Y-96521542D01*
X96035714Y-96569161D01*
X96130952Y-96616780D01*
X96321428Y-96616780D01*
X96416666Y-96569161D01*
X96464285Y-96521542D01*
X96511904Y-96426304D01*
X96511904Y-96188209D01*
X96464285Y-96092971D01*
X96416666Y-96045352D01*
X96321428Y-95997733D01*
X96130952Y-95997733D01*
X96035714Y-96045352D01*
X95988095Y-96092971D01*
X95940476Y-96188209D01*
X107030780Y-57234057D02*
X106554590Y-57567390D01*
X107030780Y-57805485D02*
X106030780Y-57805485D01*
X106030780Y-57424533D01*
X106078400Y-57329295D01*
X106126019Y-57281676D01*
X106221257Y-57234057D01*
X106364114Y-57234057D01*
X106459352Y-57281676D01*
X106506971Y-57329295D01*
X106554590Y-57424533D01*
X106554590Y-57805485D01*
X107030780Y-56281676D02*
X107030780Y-56853104D01*
X107030780Y-56567390D02*
X106030780Y-56567390D01*
X106173638Y-56662628D01*
X106268876Y-56757866D01*
X106316495Y-56853104D01*
X106459352Y-55710247D02*
X106411733Y-55805485D01*
X106364114Y-55853104D01*
X106268876Y-55900723D01*
X106221257Y-55900723D01*
X106126019Y-55853104D01*
X106078400Y-55805485D01*
X106030780Y-55710247D01*
X106030780Y-55519771D01*
X106078400Y-55424533D01*
X106126019Y-55376914D01*
X106221257Y-55329295D01*
X106268876Y-55329295D01*
X106364114Y-55376914D01*
X106411733Y-55424533D01*
X106459352Y-55519771D01*
X106459352Y-55710247D01*
X106506971Y-55805485D01*
X106554590Y-55853104D01*
X106649828Y-55900723D01*
X106840304Y-55900723D01*
X106935542Y-55853104D01*
X106983161Y-55805485D01*
X107030780Y-55710247D01*
X107030780Y-55519771D01*
X106983161Y-55424533D01*
X106935542Y-55376914D01*
X106840304Y-55329295D01*
X106649828Y-55329295D01*
X106554590Y-55376914D01*
X106506971Y-55424533D01*
X106459352Y-55519771D01*
X144368780Y-109843866D02*
X143892590Y-110177200D01*
X144368780Y-110415295D02*
X143368780Y-110415295D01*
X143368780Y-110034342D01*
X143416400Y-109939104D01*
X143464019Y-109891485D01*
X143559257Y-109843866D01*
X143702114Y-109843866D01*
X143797352Y-109891485D01*
X143844971Y-109939104D01*
X143892590Y-110034342D01*
X143892590Y-110415295D01*
X143368780Y-109510533D02*
X143368780Y-108843866D01*
X144368780Y-109272438D01*
X142793980Y-83446857D02*
X142317790Y-83780190D01*
X142793980Y-84018285D02*
X141793980Y-84018285D01*
X141793980Y-83637333D01*
X141841600Y-83542095D01*
X141889219Y-83494476D01*
X141984457Y-83446857D01*
X142127314Y-83446857D01*
X142222552Y-83494476D01*
X142270171Y-83542095D01*
X142317790Y-83637333D01*
X142317790Y-84018285D01*
X142793980Y-82494476D02*
X142793980Y-83065904D01*
X142793980Y-82780190D02*
X141793980Y-82780190D01*
X141936838Y-82875428D01*
X142032076Y-82970666D01*
X142079695Y-83065904D01*
X141793980Y-81875428D02*
X141793980Y-81780190D01*
X141841600Y-81684952D01*
X141889219Y-81637333D01*
X141984457Y-81589714D01*
X142174933Y-81542095D01*
X142413028Y-81542095D01*
X142603504Y-81589714D01*
X142698742Y-81637333D01*
X142746361Y-81684952D01*
X142793980Y-81780190D01*
X142793980Y-81875428D01*
X142746361Y-81970666D01*
X142698742Y-82018285D01*
X142603504Y-82065904D01*
X142413028Y-82113523D01*
X142174933Y-82113523D01*
X141984457Y-82065904D01*
X141889219Y-82018285D01*
X141841600Y-81970666D01*
X141793980Y-81875428D01*
X137713980Y-82615066D02*
X137237790Y-82948400D01*
X137713980Y-83186495D02*
X136713980Y-83186495D01*
X136713980Y-82805542D01*
X136761600Y-82710304D01*
X136809219Y-82662685D01*
X136904457Y-82615066D01*
X137047314Y-82615066D01*
X137142552Y-82662685D01*
X137190171Y-82710304D01*
X137237790Y-82805542D01*
X137237790Y-83186495D01*
X137142552Y-82043638D02*
X137094933Y-82138876D01*
X137047314Y-82186495D01*
X136952076Y-82234114D01*
X136904457Y-82234114D01*
X136809219Y-82186495D01*
X136761600Y-82138876D01*
X136713980Y-82043638D01*
X136713980Y-81853161D01*
X136761600Y-81757923D01*
X136809219Y-81710304D01*
X136904457Y-81662685D01*
X136952076Y-81662685D01*
X137047314Y-81710304D01*
X137094933Y-81757923D01*
X137142552Y-81853161D01*
X137142552Y-82043638D01*
X137190171Y-82138876D01*
X137237790Y-82186495D01*
X137333028Y-82234114D01*
X137523504Y-82234114D01*
X137618742Y-82186495D01*
X137666361Y-82138876D01*
X137713980Y-82043638D01*
X137713980Y-81853161D01*
X137666361Y-81757923D01*
X137618742Y-81710304D01*
X137523504Y-81662685D01*
X137333028Y-81662685D01*
X137237790Y-81710304D01*
X137190171Y-81757923D01*
X137142552Y-81853161D01*
X98293180Y-99683866D02*
X97816990Y-100017200D01*
X98293180Y-100255295D02*
X97293180Y-100255295D01*
X97293180Y-99874342D01*
X97340800Y-99779104D01*
X97388419Y-99731485D01*
X97483657Y-99683866D01*
X97626514Y-99683866D01*
X97721752Y-99731485D01*
X97769371Y-99779104D01*
X97816990Y-99874342D01*
X97816990Y-100255295D01*
X97293180Y-98826723D02*
X97293180Y-99017200D01*
X97340800Y-99112438D01*
X97388419Y-99160057D01*
X97531276Y-99255295D01*
X97721752Y-99302914D01*
X98102704Y-99302914D01*
X98197942Y-99255295D01*
X98245561Y-99207676D01*
X98293180Y-99112438D01*
X98293180Y-98921961D01*
X98245561Y-98826723D01*
X98197942Y-98779104D01*
X98102704Y-98731485D01*
X97864609Y-98731485D01*
X97769371Y-98779104D01*
X97721752Y-98826723D01*
X97674133Y-98921961D01*
X97674133Y-99112438D01*
X97721752Y-99207676D01*
X97769371Y-99255295D01*
X97864609Y-99302914D01*
X89952533Y-103525580D02*
X89619200Y-103049390D01*
X89381104Y-103525580D02*
X89381104Y-102525580D01*
X89762057Y-102525580D01*
X89857295Y-102573200D01*
X89904914Y-102620819D01*
X89952533Y-102716057D01*
X89952533Y-102858914D01*
X89904914Y-102954152D01*
X89857295Y-103001771D01*
X89762057Y-103049390D01*
X89381104Y-103049390D01*
X90809676Y-102858914D02*
X90809676Y-103525580D01*
X90571580Y-102477961D02*
X90333485Y-103192247D01*
X90952533Y-103192247D01*
X98283733Y-105201980D02*
X97950400Y-104725790D01*
X97712304Y-105201980D02*
X97712304Y-104201980D01*
X98093257Y-104201980D01*
X98188495Y-104249600D01*
X98236114Y-104297219D01*
X98283733Y-104392457D01*
X98283733Y-104535314D01*
X98236114Y-104630552D01*
X98188495Y-104678171D01*
X98093257Y-104725790D01*
X97712304Y-104725790D01*
X98617066Y-104201980D02*
X99236114Y-104201980D01*
X98902780Y-104582933D01*
X99045638Y-104582933D01*
X99140876Y-104630552D01*
X99188495Y-104678171D01*
X99236114Y-104773409D01*
X99236114Y-105011504D01*
X99188495Y-105106742D01*
X99140876Y-105154361D01*
X99045638Y-105201980D01*
X98759923Y-105201980D01*
X98664685Y-105154361D01*
X98617066Y-105106742D01*
X144003733Y-98394780D02*
X143670400Y-97918590D01*
X143432304Y-98394780D02*
X143432304Y-97394780D01*
X143813257Y-97394780D01*
X143908495Y-97442400D01*
X143956114Y-97490019D01*
X144003733Y-97585257D01*
X144003733Y-97728114D01*
X143956114Y-97823352D01*
X143908495Y-97870971D01*
X143813257Y-97918590D01*
X143432304Y-97918590D01*
X144956114Y-98394780D02*
X144384685Y-98394780D01*
X144670400Y-98394780D02*
X144670400Y-97394780D01*
X144575161Y-97537638D01*
X144479923Y-97632876D01*
X144384685Y-97680495D01*
X101273409Y-53284380D02*
X101273409Y-52284380D01*
X101654361Y-52284380D01*
X101749600Y-52332000D01*
X101797219Y-52379619D01*
X101844838Y-52474857D01*
X101844838Y-52617714D01*
X101797219Y-52712952D01*
X101749600Y-52760571D01*
X101654361Y-52808190D01*
X101273409Y-52808190D01*
X102178171Y-52284380D02*
X102416266Y-53284380D01*
X102606742Y-52570095D01*
X102797219Y-53284380D01*
X103035314Y-52284380D01*
X103987695Y-53284380D02*
X103654361Y-52808190D01*
X103416266Y-53284380D02*
X103416266Y-52284380D01*
X103797219Y-52284380D01*
X103892457Y-52332000D01*
X103940076Y-52379619D01*
X103987695Y-52474857D01*
X103987695Y-52617714D01*
X103940076Y-52712952D01*
X103892457Y-52760571D01*
X103797219Y-52808190D01*
X103416266Y-52808190D01*
X104368647Y-53236761D02*
X104511504Y-53284380D01*
X104749600Y-53284380D01*
X104844838Y-53236761D01*
X104892457Y-53189142D01*
X104940076Y-53093904D01*
X104940076Y-52998666D01*
X104892457Y-52903428D01*
X104844838Y-52855809D01*
X104749600Y-52808190D01*
X104559123Y-52760571D01*
X104463885Y-52712952D01*
X104416266Y-52665333D01*
X104368647Y-52570095D01*
X104368647Y-52474857D01*
X104416266Y-52379619D01*
X104463885Y-52332000D01*
X104559123Y-52284380D01*
X104797219Y-52284380D01*
X104940076Y-52332000D01*
X105225790Y-52284380D02*
X105797219Y-52284380D01*
X105511504Y-53284380D02*
X105511504Y-52284380D01*
X106082933Y-52998666D02*
X106559123Y-52998666D01*
X105987695Y-53284380D02*
X106321028Y-52284380D01*
X106654361Y-53284380D01*
X106844838Y-52284380D02*
X107416266Y-52284380D01*
X107130552Y-53284380D02*
X107130552Y-52284380D01*
X108273409Y-53284380D02*
X107701980Y-53284380D01*
X107987695Y-53284380D02*
X107987695Y-52284380D01*
X107892457Y-52427238D01*
X107797219Y-52522476D01*
X107701980Y-52570095D01*
X94172495Y-53335180D02*
X94172495Y-52335180D01*
X94743923Y-53335180D01*
X94743923Y-52335180D01*
X95220114Y-52811371D02*
X95553447Y-52811371D01*
X95696304Y-53335180D02*
X95220114Y-53335180D01*
X95220114Y-52335180D01*
X95696304Y-52335180D01*
X95982019Y-52335180D02*
X96553447Y-52335180D01*
X96267733Y-53335180D02*
X96267733Y-52335180D01*
X96839161Y-53287561D02*
X96982019Y-53335180D01*
X97220114Y-53335180D01*
X97315352Y-53287561D01*
X97362971Y-53239942D01*
X97410590Y-53144704D01*
X97410590Y-53049466D01*
X97362971Y-52954228D01*
X97315352Y-52906609D01*
X97220114Y-52858990D01*
X97029638Y-52811371D01*
X96934400Y-52763752D01*
X96886780Y-52716133D01*
X96839161Y-52620895D01*
X96839161Y-52525657D01*
X96886780Y-52430419D01*
X96934400Y-52382800D01*
X97029638Y-52335180D01*
X97267733Y-52335180D01*
X97410590Y-52382800D01*
X97696304Y-52335180D02*
X98267733Y-52335180D01*
X97982019Y-53335180D02*
X97982019Y-52335180D01*
X98553447Y-53049466D02*
X99029638Y-53049466D01*
X98458209Y-53335180D02*
X98791542Y-52335180D01*
X99124876Y-53335180D01*
X99315352Y-52335180D02*
X99886780Y-52335180D01*
X99601066Y-53335180D02*
X99601066Y-52335180D01*
X100743923Y-53335180D02*
X100172495Y-53335180D01*
X100458209Y-53335180D02*
X100458209Y-52335180D01*
X100362971Y-52478038D01*
X100267733Y-52573276D01*
X100172495Y-52620895D01*
X123923466Y-55992780D02*
X123923466Y-56707066D01*
X123875847Y-56849923D01*
X123780609Y-56945161D01*
X123637752Y-56992780D01*
X123542514Y-56992780D01*
X124304419Y-55992780D02*
X124971085Y-55992780D01*
X124542514Y-56992780D01*
X140940780Y-113158495D02*
X139940780Y-113158495D01*
X139940780Y-112920400D01*
X139988400Y-112777542D01*
X140083638Y-112682304D01*
X140178876Y-112634685D01*
X140369352Y-112587066D01*
X140512209Y-112587066D01*
X140702685Y-112634685D01*
X140797923Y-112682304D01*
X140893161Y-112777542D01*
X140940780Y-112920400D01*
X140940780Y-113158495D01*
X139940780Y-112253733D02*
X139940780Y-111634685D01*
X140321733Y-111968019D01*
X140321733Y-111825161D01*
X140369352Y-111729923D01*
X140416971Y-111682304D01*
X140512209Y-111634685D01*
X140750304Y-111634685D01*
X140845542Y-111682304D01*
X140893161Y-111729923D01*
X140940780Y-111825161D01*
X140940780Y-112110876D01*
X140893161Y-112206114D01*
X140845542Y-112253733D01*
X104475114Y-94356180D02*
X104475114Y-93356180D01*
X104713209Y-93356180D01*
X104856066Y-93403800D01*
X104951304Y-93499038D01*
X104998923Y-93594276D01*
X105046542Y-93784752D01*
X105046542Y-93927609D01*
X104998923Y-94118085D01*
X104951304Y-94213323D01*
X104856066Y-94308561D01*
X104713209Y-94356180D01*
X104475114Y-94356180D01*
X105998923Y-94356180D02*
X105427495Y-94356180D01*
X105713209Y-94356180D02*
X105713209Y-93356180D01*
X105617971Y-93499038D01*
X105522733Y-93594276D01*
X105427495Y-93641895D01*
X106617971Y-93356180D02*
X106713209Y-93356180D01*
X106808447Y-93403800D01*
X106856066Y-93451419D01*
X106903685Y-93546657D01*
X106951304Y-93737133D01*
X106951304Y-93975228D01*
X106903685Y-94165704D01*
X106856066Y-94260942D01*
X106808447Y-94308561D01*
X106713209Y-94356180D01*
X106617971Y-94356180D01*
X106522733Y-94308561D01*
X106475114Y-94260942D01*
X106427495Y-94165704D01*
X106379876Y-93975228D01*
X106379876Y-93737133D01*
X106427495Y-93546657D01*
X106475114Y-93451419D01*
X106522733Y-93403800D01*
X106617971Y-93356180D01*
X162402780Y-118543295D02*
X161402780Y-118543295D01*
X161402780Y-118305200D01*
X161450400Y-118162342D01*
X161545638Y-118067104D01*
X161640876Y-118019485D01*
X161831352Y-117971866D01*
X161974209Y-117971866D01*
X162164685Y-118019485D01*
X162259923Y-118067104D01*
X162355161Y-118162342D01*
X162402780Y-118305200D01*
X162402780Y-118543295D01*
X161402780Y-117638533D02*
X161402780Y-116971866D01*
X162402780Y-117400438D01*
X144092704Y-75179180D02*
X144092704Y-74179180D01*
X144330800Y-74179180D01*
X144473657Y-74226800D01*
X144568895Y-74322038D01*
X144616514Y-74417276D01*
X144664133Y-74607752D01*
X144664133Y-74750609D01*
X144616514Y-74941085D01*
X144568895Y-75036323D01*
X144473657Y-75131561D01*
X144330800Y-75179180D01*
X144092704Y-75179180D01*
X145521276Y-74179180D02*
X145330800Y-74179180D01*
X145235561Y-74226800D01*
X145187942Y-74274419D01*
X145092704Y-74417276D01*
X145045085Y-74607752D01*
X145045085Y-74988704D01*
X145092704Y-75083942D01*
X145140323Y-75131561D01*
X145235561Y-75179180D01*
X145426038Y-75179180D01*
X145521276Y-75131561D01*
X145568895Y-75083942D01*
X145616514Y-74988704D01*
X145616514Y-74750609D01*
X145568895Y-74655371D01*
X145521276Y-74607752D01*
X145426038Y-74560133D01*
X145235561Y-74560133D01*
X145140323Y-74607752D01*
X145092704Y-74655371D01*
X145045085Y-74750609D01*
X139063504Y-75128380D02*
X139063504Y-74128380D01*
X139301600Y-74128380D01*
X139444457Y-74176000D01*
X139539695Y-74271238D01*
X139587314Y-74366476D01*
X139634933Y-74556952D01*
X139634933Y-74699809D01*
X139587314Y-74890285D01*
X139539695Y-74985523D01*
X139444457Y-75080761D01*
X139301600Y-75128380D01*
X139063504Y-75128380D01*
X140539695Y-74128380D02*
X140063504Y-74128380D01*
X140015885Y-74604571D01*
X140063504Y-74556952D01*
X140158742Y-74509333D01*
X140396838Y-74509333D01*
X140492076Y-74556952D01*
X140539695Y-74604571D01*
X140587314Y-74699809D01*
X140587314Y-74937904D01*
X140539695Y-75033142D01*
X140492076Y-75080761D01*
X140396838Y-75128380D01*
X140158742Y-75128380D01*
X140063504Y-75080761D01*
X140015885Y-75033142D01*
X145108704Y-114599980D02*
X145108704Y-113599980D01*
X145346800Y-113599980D01*
X145489657Y-113647600D01*
X145584895Y-113742838D01*
X145632514Y-113838076D01*
X145680133Y-114028552D01*
X145680133Y-114171409D01*
X145632514Y-114361885D01*
X145584895Y-114457123D01*
X145489657Y-114552361D01*
X145346800Y-114599980D01*
X145108704Y-114599980D01*
X146251561Y-114028552D02*
X146156323Y-113980933D01*
X146108704Y-113933314D01*
X146061085Y-113838076D01*
X146061085Y-113790457D01*
X146108704Y-113695219D01*
X146156323Y-113647600D01*
X146251561Y-113599980D01*
X146442038Y-113599980D01*
X146537276Y-113647600D01*
X146584895Y-113695219D01*
X146632514Y-113790457D01*
X146632514Y-113838076D01*
X146584895Y-113933314D01*
X146537276Y-113980933D01*
X146442038Y-114028552D01*
X146251561Y-114028552D01*
X146156323Y-114076171D01*
X146108704Y-114123790D01*
X146061085Y-114219028D01*
X146061085Y-114409504D01*
X146108704Y-114504742D01*
X146156323Y-114552361D01*
X146251561Y-114599980D01*
X146442038Y-114599980D01*
X146537276Y-114552361D01*
X146584895Y-114504742D01*
X146632514Y-114409504D01*
X146632514Y-114219028D01*
X146584895Y-114123790D01*
X146537276Y-114076171D01*
X146442038Y-114028552D01*
X109002533Y-117901980D02*
X108669200Y-117425790D01*
X108431104Y-117901980D02*
X108431104Y-116901980D01*
X108812057Y-116901980D01*
X108907295Y-116949600D01*
X108954914Y-116997219D01*
X109002533Y-117092457D01*
X109002533Y-117235314D01*
X108954914Y-117330552D01*
X108907295Y-117378171D01*
X108812057Y-117425790D01*
X108431104Y-117425790D01*
X109478723Y-117901980D02*
X109669200Y-117901980D01*
X109764438Y-117854361D01*
X109812057Y-117806742D01*
X109907295Y-117663885D01*
X109954914Y-117473409D01*
X109954914Y-117092457D01*
X109907295Y-116997219D01*
X109859676Y-116949600D01*
X109764438Y-116901980D01*
X109573961Y-116901980D01*
X109478723Y-116949600D01*
X109431104Y-116997219D01*
X109383485Y-117092457D01*
X109383485Y-117330552D01*
X109431104Y-117425790D01*
X109478723Y-117473409D01*
X109573961Y-117521028D01*
X109764438Y-117521028D01*
X109859676Y-117473409D01*
X109907295Y-117425790D01*
X109954914Y-117330552D01*
X123963133Y-105919542D02*
X123915514Y-105967161D01*
X123772657Y-106014780D01*
X123677419Y-106014780D01*
X123534561Y-105967161D01*
X123439323Y-105871923D01*
X123391704Y-105776685D01*
X123344085Y-105586209D01*
X123344085Y-105443352D01*
X123391704Y-105252876D01*
X123439323Y-105157638D01*
X123534561Y-105062400D01*
X123677419Y-105014780D01*
X123772657Y-105014780D01*
X123915514Y-105062400D01*
X123963133Y-105110019D01*
X124820276Y-105348114D02*
X124820276Y-106014780D01*
X124582180Y-104967161D02*
X124344085Y-105681447D01*
X124963133Y-105681447D01*
X133750342Y-112790266D02*
X133797961Y-112837885D01*
X133845580Y-112980742D01*
X133845580Y-113075980D01*
X133797961Y-113218838D01*
X133702723Y-113314076D01*
X133607485Y-113361695D01*
X133417009Y-113409314D01*
X133274152Y-113409314D01*
X133083676Y-113361695D01*
X132988438Y-113314076D01*
X132893200Y-113218838D01*
X132845580Y-113075980D01*
X132845580Y-112980742D01*
X132893200Y-112837885D01*
X132940819Y-112790266D01*
X132845580Y-111933123D02*
X132845580Y-112123600D01*
X132893200Y-112218838D01*
X132940819Y-112266457D01*
X133083676Y-112361695D01*
X133274152Y-112409314D01*
X133655104Y-112409314D01*
X133750342Y-112361695D01*
X133797961Y-112314076D01*
X133845580Y-112218838D01*
X133845580Y-112028361D01*
X133797961Y-111933123D01*
X133750342Y-111885504D01*
X133655104Y-111837885D01*
X133417009Y-111837885D01*
X133321771Y-111885504D01*
X133274152Y-111933123D01*
X133226533Y-112028361D01*
X133226533Y-112218838D01*
X133274152Y-112314076D01*
X133321771Y-112361695D01*
X133417009Y-112409314D01*
X123963133Y-107570542D02*
X123915514Y-107618161D01*
X123772657Y-107665780D01*
X123677419Y-107665780D01*
X123534561Y-107618161D01*
X123439323Y-107522923D01*
X123391704Y-107427685D01*
X123344085Y-107237209D01*
X123344085Y-107094352D01*
X123391704Y-106903876D01*
X123439323Y-106808638D01*
X123534561Y-106713400D01*
X123677419Y-106665780D01*
X123772657Y-106665780D01*
X123915514Y-106713400D01*
X123963133Y-106761019D01*
X124296466Y-106665780D02*
X124915514Y-106665780D01*
X124582180Y-107046733D01*
X124725038Y-107046733D01*
X124820276Y-107094352D01*
X124867895Y-107141971D01*
X124915514Y-107237209D01*
X124915514Y-107475304D01*
X124867895Y-107570542D01*
X124820276Y-107618161D01*
X124725038Y-107665780D01*
X124439323Y-107665780D01*
X124344085Y-107618161D01*
X124296466Y-107570542D01*
X153722342Y-115247657D02*
X153769961Y-115295276D01*
X153817580Y-115438133D01*
X153817580Y-115533371D01*
X153769961Y-115676228D01*
X153674723Y-115771466D01*
X153579485Y-115819085D01*
X153389009Y-115866704D01*
X153246152Y-115866704D01*
X153055676Y-115819085D01*
X152960438Y-115771466D01*
X152865200Y-115676228D01*
X152817580Y-115533371D01*
X152817580Y-115438133D01*
X152865200Y-115295276D01*
X152912819Y-115247657D01*
X152912819Y-114866704D02*
X152865200Y-114819085D01*
X152817580Y-114723847D01*
X152817580Y-114485752D01*
X152865200Y-114390514D01*
X152912819Y-114342895D01*
X153008057Y-114295276D01*
X153103295Y-114295276D01*
X153246152Y-114342895D01*
X153817580Y-114914323D01*
X153817580Y-114295276D01*
X152817580Y-113438133D02*
X152817580Y-113628609D01*
X152865200Y-113723847D01*
X152912819Y-113771466D01*
X153055676Y-113866704D01*
X153246152Y-113914323D01*
X153627104Y-113914323D01*
X153722342Y-113866704D01*
X153769961Y-113819085D01*
X153817580Y-113723847D01*
X153817580Y-113533371D01*
X153769961Y-113438133D01*
X153722342Y-113390514D01*
X153627104Y-113342895D01*
X153389009Y-113342895D01*
X153293771Y-113390514D01*
X153246152Y-113438133D01*
X153198533Y-113533371D01*
X153198533Y-113723847D01*
X153246152Y-113819085D01*
X153293771Y-113866704D01*
X153389009Y-113914323D01*
X123664742Y-88495142D02*
X123617123Y-88542761D01*
X123474266Y-88590380D01*
X123379028Y-88590380D01*
X123236171Y-88542761D01*
X123140933Y-88447523D01*
X123093314Y-88352285D01*
X123045695Y-88161809D01*
X123045695Y-88018952D01*
X123093314Y-87828476D01*
X123140933Y-87733238D01*
X123236171Y-87638000D01*
X123379028Y-87590380D01*
X123474266Y-87590380D01*
X123617123Y-87638000D01*
X123664742Y-87685619D01*
X124045695Y-87685619D02*
X124093314Y-87638000D01*
X124188552Y-87590380D01*
X124426647Y-87590380D01*
X124521885Y-87638000D01*
X124569504Y-87685619D01*
X124617123Y-87780857D01*
X124617123Y-87876095D01*
X124569504Y-88018952D01*
X123998076Y-88590380D01*
X124617123Y-88590380D01*
X125521885Y-87590380D02*
X125045695Y-87590380D01*
X124998076Y-88066571D01*
X125045695Y-88018952D01*
X125140933Y-87971333D01*
X125379028Y-87971333D01*
X125474266Y-88018952D01*
X125521885Y-88066571D01*
X125569504Y-88161809D01*
X125569504Y-88399904D01*
X125521885Y-88495142D01*
X125474266Y-88542761D01*
X125379028Y-88590380D01*
X125140933Y-88590380D01*
X125045695Y-88542761D01*
X124998076Y-88495142D01*
X109948742Y-87987142D02*
X109901123Y-88034761D01*
X109758266Y-88082380D01*
X109663028Y-88082380D01*
X109520171Y-88034761D01*
X109424933Y-87939523D01*
X109377314Y-87844285D01*
X109329695Y-87653809D01*
X109329695Y-87510952D01*
X109377314Y-87320476D01*
X109424933Y-87225238D01*
X109520171Y-87130000D01*
X109663028Y-87082380D01*
X109758266Y-87082380D01*
X109901123Y-87130000D01*
X109948742Y-87177619D01*
X110329695Y-87177619D02*
X110377314Y-87130000D01*
X110472552Y-87082380D01*
X110710647Y-87082380D01*
X110805885Y-87130000D01*
X110853504Y-87177619D01*
X110901123Y-87272857D01*
X110901123Y-87368095D01*
X110853504Y-87510952D01*
X110282076Y-88082380D01*
X110901123Y-88082380D01*
X111234457Y-87082380D02*
X111901123Y-87082380D01*
X111472552Y-88082380D01*
X107002342Y-87936342D02*
X106954723Y-87983961D01*
X106811866Y-88031580D01*
X106716628Y-88031580D01*
X106573771Y-87983961D01*
X106478533Y-87888723D01*
X106430914Y-87793485D01*
X106383295Y-87603009D01*
X106383295Y-87460152D01*
X106430914Y-87269676D01*
X106478533Y-87174438D01*
X106573771Y-87079200D01*
X106716628Y-87031580D01*
X106811866Y-87031580D01*
X106954723Y-87079200D01*
X107002342Y-87126819D01*
X107335676Y-87031580D02*
X107954723Y-87031580D01*
X107621390Y-87412533D01*
X107764247Y-87412533D01*
X107859485Y-87460152D01*
X107907104Y-87507771D01*
X107954723Y-87603009D01*
X107954723Y-87841104D01*
X107907104Y-87936342D01*
X107859485Y-87983961D01*
X107764247Y-88031580D01*
X107478533Y-88031580D01*
X107383295Y-87983961D01*
X107335676Y-87936342D01*
X108288057Y-87031580D02*
X108907104Y-87031580D01*
X108573771Y-87412533D01*
X108716628Y-87412533D01*
X108811866Y-87460152D01*
X108859485Y-87507771D01*
X108907104Y-87603009D01*
X108907104Y-87841104D01*
X108859485Y-87936342D01*
X108811866Y-87983961D01*
X108716628Y-88031580D01*
X108430914Y-88031580D01*
X108335676Y-87983961D01*
X108288057Y-87936342D01*
X103989142Y-93454457D02*
X104036761Y-93502076D01*
X104084380Y-93644933D01*
X104084380Y-93740171D01*
X104036761Y-93883028D01*
X103941523Y-93978266D01*
X103846285Y-94025885D01*
X103655809Y-94073504D01*
X103512952Y-94073504D01*
X103322476Y-94025885D01*
X103227238Y-93978266D01*
X103132000Y-93883028D01*
X103084380Y-93740171D01*
X103084380Y-93644933D01*
X103132000Y-93502076D01*
X103179619Y-93454457D01*
X103084380Y-93121123D02*
X103084380Y-92502076D01*
X103465333Y-92835409D01*
X103465333Y-92692552D01*
X103512952Y-92597314D01*
X103560571Y-92549695D01*
X103655809Y-92502076D01*
X103893904Y-92502076D01*
X103989142Y-92549695D01*
X104036761Y-92597314D01*
X104084380Y-92692552D01*
X104084380Y-92978266D01*
X104036761Y-93073504D01*
X103989142Y-93121123D01*
X103179619Y-92121123D02*
X103132000Y-92073504D01*
X103084380Y-91978266D01*
X103084380Y-91740171D01*
X103132000Y-91644933D01*
X103179619Y-91597314D01*
X103274857Y-91549695D01*
X103370095Y-91549695D01*
X103512952Y-91597314D01*
X104084380Y-92168742D01*
X104084380Y-91549695D01*
X135805942Y-116865542D02*
X135758323Y-116913161D01*
X135615466Y-116960780D01*
X135520228Y-116960780D01*
X135377371Y-116913161D01*
X135282133Y-116817923D01*
X135234514Y-116722685D01*
X135186895Y-116532209D01*
X135186895Y-116389352D01*
X135234514Y-116198876D01*
X135282133Y-116103638D01*
X135377371Y-116008400D01*
X135520228Y-115960780D01*
X135615466Y-115960780D01*
X135758323Y-116008400D01*
X135805942Y-116056019D01*
X136186895Y-116056019D02*
X136234514Y-116008400D01*
X136329752Y-115960780D01*
X136567847Y-115960780D01*
X136663085Y-116008400D01*
X136710704Y-116056019D01*
X136758323Y-116151257D01*
X136758323Y-116246495D01*
X136710704Y-116389352D01*
X136139276Y-116960780D01*
X136758323Y-116960780D01*
X137615466Y-116294114D02*
X137615466Y-116960780D01*
X137377371Y-115913161D02*
X137139276Y-116627447D01*
X137758323Y-116627447D01*
X123105942Y-103531942D02*
X123058323Y-103579561D01*
X122915466Y-103627180D01*
X122820228Y-103627180D01*
X122677371Y-103579561D01*
X122582133Y-103484323D01*
X122534514Y-103389085D01*
X122486895Y-103198609D01*
X122486895Y-103055752D01*
X122534514Y-102865276D01*
X122582133Y-102770038D01*
X122677371Y-102674800D01*
X122820228Y-102627180D01*
X122915466Y-102627180D01*
X123058323Y-102674800D01*
X123105942Y-102722419D01*
X124058323Y-103627180D02*
X123486895Y-103627180D01*
X123772609Y-103627180D02*
X123772609Y-102627180D01*
X123677371Y-102770038D01*
X123582133Y-102865276D01*
X123486895Y-102912895D01*
X124629752Y-103055752D02*
X124534514Y-103008133D01*
X124486895Y-102960514D01*
X124439276Y-102865276D01*
X124439276Y-102817657D01*
X124486895Y-102722419D01*
X124534514Y-102674800D01*
X124629752Y-102627180D01*
X124820228Y-102627180D01*
X124915466Y-102674800D01*
X124963085Y-102722419D01*
X125010704Y-102817657D01*
X125010704Y-102865276D01*
X124963085Y-102960514D01*
X124915466Y-103008133D01*
X124820228Y-103055752D01*
X124629752Y-103055752D01*
X124534514Y-103103371D01*
X124486895Y-103150990D01*
X124439276Y-103246228D01*
X124439276Y-103436704D01*
X124486895Y-103531942D01*
X124534514Y-103579561D01*
X124629752Y-103627180D01*
X124820228Y-103627180D01*
X124915466Y-103579561D01*
X124963085Y-103531942D01*
X125010704Y-103436704D01*
X125010704Y-103246228D01*
X124963085Y-103150990D01*
X124915466Y-103103371D01*
X124820228Y-103055752D01*
X95724742Y-120424342D02*
X95677123Y-120471961D01*
X95534266Y-120519580D01*
X95439028Y-120519580D01*
X95296171Y-120471961D01*
X95200933Y-120376723D01*
X95153314Y-120281485D01*
X95105695Y-120091009D01*
X95105695Y-119948152D01*
X95153314Y-119757676D01*
X95200933Y-119662438D01*
X95296171Y-119567200D01*
X95439028Y-119519580D01*
X95534266Y-119519580D01*
X95677123Y-119567200D01*
X95724742Y-119614819D01*
X96677123Y-120519580D02*
X96105695Y-120519580D01*
X96391409Y-120519580D02*
X96391409Y-119519580D01*
X96296171Y-119662438D01*
X96200933Y-119757676D01*
X96105695Y-119805295D01*
X97581885Y-119519580D02*
X97105695Y-119519580D01*
X97058076Y-119995771D01*
X97105695Y-119948152D01*
X97200933Y-119900533D01*
X97439028Y-119900533D01*
X97534266Y-119948152D01*
X97581885Y-119995771D01*
X97629504Y-120091009D01*
X97629504Y-120329104D01*
X97581885Y-120424342D01*
X97534266Y-120471961D01*
X97439028Y-120519580D01*
X97200933Y-120519580D01*
X97105695Y-120471961D01*
X97058076Y-120424342D01*
X89984342Y-96521542D02*
X89936723Y-96569161D01*
X89793866Y-96616780D01*
X89698628Y-96616780D01*
X89555771Y-96569161D01*
X89460533Y-96473923D01*
X89412914Y-96378685D01*
X89365295Y-96188209D01*
X89365295Y-96045352D01*
X89412914Y-95854876D01*
X89460533Y-95759638D01*
X89555771Y-95664400D01*
X89698628Y-95616780D01*
X89793866Y-95616780D01*
X89936723Y-95664400D01*
X89984342Y-95712019D01*
X90936723Y-96616780D02*
X90365295Y-96616780D01*
X90651009Y-96616780D02*
X90651009Y-95616780D01*
X90555771Y-95759638D01*
X90460533Y-95854876D01*
X90365295Y-95902495D01*
X91270057Y-95616780D02*
X91889104Y-95616780D01*
X91555771Y-95997733D01*
X91698628Y-95997733D01*
X91793866Y-96045352D01*
X91841485Y-96092971D01*
X91889104Y-96188209D01*
X91889104Y-96426304D01*
X91841485Y-96521542D01*
X91793866Y-96569161D01*
X91698628Y-96616780D01*
X91412914Y-96616780D01*
X91317676Y-96569161D01*
X91270057Y-96521542D01*
X95673942Y-123472342D02*
X95626323Y-123519961D01*
X95483466Y-123567580D01*
X95388228Y-123567580D01*
X95245371Y-123519961D01*
X95150133Y-123424723D01*
X95102514Y-123329485D01*
X95054895Y-123139009D01*
X95054895Y-122996152D01*
X95102514Y-122805676D01*
X95150133Y-122710438D01*
X95245371Y-122615200D01*
X95388228Y-122567580D01*
X95483466Y-122567580D01*
X95626323Y-122615200D01*
X95673942Y-122662819D01*
X96626323Y-123567580D02*
X96054895Y-123567580D01*
X96340609Y-123567580D02*
X96340609Y-122567580D01*
X96245371Y-122710438D01*
X96150133Y-122805676D01*
X96054895Y-122853295D01*
X97007276Y-122662819D02*
X97054895Y-122615200D01*
X97150133Y-122567580D01*
X97388228Y-122567580D01*
X97483466Y-122615200D01*
X97531085Y-122662819D01*
X97578704Y-122758057D01*
X97578704Y-122853295D01*
X97531085Y-122996152D01*
X96959657Y-123567580D01*
X97578704Y-123567580D01*
X105884742Y-96064342D02*
X105837123Y-96111961D01*
X105694266Y-96159580D01*
X105599028Y-96159580D01*
X105456171Y-96111961D01*
X105360933Y-96016723D01*
X105313314Y-95921485D01*
X105265695Y-95731009D01*
X105265695Y-95588152D01*
X105313314Y-95397676D01*
X105360933Y-95302438D01*
X105456171Y-95207200D01*
X105599028Y-95159580D01*
X105694266Y-95159580D01*
X105837123Y-95207200D01*
X105884742Y-95254819D01*
X106837123Y-96159580D02*
X106265695Y-96159580D01*
X106551409Y-96159580D02*
X106551409Y-95159580D01*
X106456171Y-95302438D01*
X106360933Y-95397676D01*
X106265695Y-95445295D01*
X107789504Y-96159580D02*
X107218076Y-96159580D01*
X107503790Y-96159580D02*
X107503790Y-95159580D01*
X107408552Y-95302438D01*
X107313314Y-95397676D01*
X107218076Y-95445295D01*
X123817142Y-96267542D02*
X123769523Y-96315161D01*
X123626666Y-96362780D01*
X123531428Y-96362780D01*
X123388571Y-96315161D01*
X123293333Y-96219923D01*
X123245714Y-96124685D01*
X123198095Y-95934209D01*
X123198095Y-95791352D01*
X123245714Y-95600876D01*
X123293333Y-95505638D01*
X123388571Y-95410400D01*
X123531428Y-95362780D01*
X123626666Y-95362780D01*
X123769523Y-95410400D01*
X123817142Y-95458019D01*
X124769523Y-96362780D02*
X124198095Y-96362780D01*
X124483809Y-96362780D02*
X124483809Y-95362780D01*
X124388571Y-95505638D01*
X124293333Y-95600876D01*
X124198095Y-95648495D01*
X125388571Y-95362780D02*
X125483809Y-95362780D01*
X125579047Y-95410400D01*
X125626666Y-95458019D01*
X125674285Y-95553257D01*
X125721904Y-95743733D01*
X125721904Y-95981828D01*
X125674285Y-96172304D01*
X125626666Y-96267542D01*
X125579047Y-96315161D01*
X125483809Y-96362780D01*
X125388571Y-96362780D01*
X125293333Y-96315161D01*
X125245714Y-96267542D01*
X125198095Y-96172304D01*
X125150476Y-95981828D01*
X125150476Y-95743733D01*
X125198095Y-95553257D01*
X125245714Y-95458019D01*
X125293333Y-95410400D01*
X125388571Y-95362780D01*
X143851333Y-96419942D02*
X143803714Y-96467561D01*
X143660857Y-96515180D01*
X143565619Y-96515180D01*
X143422761Y-96467561D01*
X143327523Y-96372323D01*
X143279904Y-96277085D01*
X143232285Y-96086609D01*
X143232285Y-95943752D01*
X143279904Y-95753276D01*
X143327523Y-95658038D01*
X143422761Y-95562800D01*
X143565619Y-95515180D01*
X143660857Y-95515180D01*
X143803714Y-95562800D01*
X143851333Y-95610419D01*
X144756095Y-95515180D02*
X144279904Y-95515180D01*
X144232285Y-95991371D01*
X144279904Y-95943752D01*
X144375142Y-95896133D01*
X144613238Y-95896133D01*
X144708476Y-95943752D01*
X144756095Y-95991371D01*
X144803714Y-96086609D01*
X144803714Y-96324704D01*
X144756095Y-96419942D01*
X144708476Y-96467561D01*
X144613238Y-96515180D01*
X144375142Y-96515180D01*
X144279904Y-96467561D01*
X144232285Y-96419942D01*
X100163333Y-103836742D02*
X100115714Y-103884361D01*
X99972857Y-103931980D01*
X99877619Y-103931980D01*
X99734761Y-103884361D01*
X99639523Y-103789123D01*
X99591904Y-103693885D01*
X99544285Y-103503409D01*
X99544285Y-103360552D01*
X99591904Y-103170076D01*
X99639523Y-103074838D01*
X99734761Y-102979600D01*
X99877619Y-102931980D01*
X99972857Y-102931980D01*
X100115714Y-102979600D01*
X100163333Y-103027219D01*
X100544285Y-103027219D02*
X100591904Y-102979600D01*
X100687142Y-102931980D01*
X100925238Y-102931980D01*
X101020476Y-102979600D01*
X101068095Y-103027219D01*
X101115714Y-103122457D01*
X101115714Y-103217695D01*
X101068095Y-103360552D01*
X100496666Y-103931980D01*
X101115714Y-103931980D01*
X100112533Y-106986342D02*
X100064914Y-107033961D01*
X99922057Y-107081580D01*
X99826819Y-107081580D01*
X99683961Y-107033961D01*
X99588723Y-106938723D01*
X99541104Y-106843485D01*
X99493485Y-106653009D01*
X99493485Y-106510152D01*
X99541104Y-106319676D01*
X99588723Y-106224438D01*
X99683961Y-106129200D01*
X99826819Y-106081580D01*
X99922057Y-106081580D01*
X100064914Y-106129200D01*
X100112533Y-106176819D01*
X101064914Y-107081580D02*
X100493485Y-107081580D01*
X100779200Y-107081580D02*
X100779200Y-106081580D01*
X100683961Y-106224438D01*
X100588723Y-106319676D01*
X100493485Y-106367295D01*
X139472942Y-95873866D02*
X139520561Y-95921485D01*
X139568180Y-96064342D01*
X139568180Y-96159580D01*
X139520561Y-96302438D01*
X139425323Y-96397676D01*
X139330085Y-96445295D01*
X139139609Y-96492914D01*
X138996752Y-96492914D01*
X138806276Y-96445295D01*
X138711038Y-96397676D01*
X138615800Y-96302438D01*
X138568180Y-96159580D01*
X138568180Y-96064342D01*
X138615800Y-95921485D01*
X138663419Y-95873866D01*
X138996752Y-95302438D02*
X138949133Y-95397676D01*
X138901514Y-95445295D01*
X138806276Y-95492914D01*
X138758657Y-95492914D01*
X138663419Y-95445295D01*
X138615800Y-95397676D01*
X138568180Y-95302438D01*
X138568180Y-95111961D01*
X138615800Y-95016723D01*
X138663419Y-94969104D01*
X138758657Y-94921485D01*
X138806276Y-94921485D01*
X138901514Y-94969104D01*
X138949133Y-95016723D01*
X138996752Y-95111961D01*
X138996752Y-95302438D01*
X139044371Y-95397676D01*
X139091990Y-95445295D01*
X139187228Y-95492914D01*
X139377704Y-95492914D01*
X139472942Y-95445295D01*
X139520561Y-95397676D01*
X139568180Y-95302438D01*
X139568180Y-95111961D01*
X139520561Y-95016723D01*
X139472942Y-94969104D01*
X139377704Y-94921485D01*
X139187228Y-94921485D01*
X139091990Y-94969104D01*
X139044371Y-95016723D01*
X138996752Y-95111961D01*
X139523742Y-97804266D02*
X139571361Y-97851885D01*
X139618980Y-97994742D01*
X139618980Y-98089980D01*
X139571361Y-98232838D01*
X139476123Y-98328076D01*
X139380885Y-98375695D01*
X139190409Y-98423314D01*
X139047552Y-98423314D01*
X138857076Y-98375695D01*
X138761838Y-98328076D01*
X138666600Y-98232838D01*
X138618980Y-98089980D01*
X138618980Y-97994742D01*
X138666600Y-97851885D01*
X138714219Y-97804266D01*
X139618980Y-97328076D02*
X139618980Y-97137600D01*
X139571361Y-97042361D01*
X139523742Y-96994742D01*
X139380885Y-96899504D01*
X139190409Y-96851885D01*
X138809457Y-96851885D01*
X138714219Y-96899504D01*
X138666600Y-96947123D01*
X138618980Y-97042361D01*
X138618980Y-97232838D01*
X138666600Y-97328076D01*
X138714219Y-97375695D01*
X138809457Y-97423314D01*
X139047552Y-97423314D01*
X139142790Y-97375695D01*
X139190409Y-97328076D01*
X139238028Y-97232838D01*
X139238028Y-97042361D01*
X139190409Y-96947123D01*
X139142790Y-96899504D01*
X139047552Y-96851885D01*
X142343142Y-104357466D02*
X142390761Y-104405085D01*
X142438380Y-104547942D01*
X142438380Y-104643180D01*
X142390761Y-104786038D01*
X142295523Y-104881276D01*
X142200285Y-104928895D01*
X142009809Y-104976514D01*
X141866952Y-104976514D01*
X141676476Y-104928895D01*
X141581238Y-104881276D01*
X141486000Y-104786038D01*
X141438380Y-104643180D01*
X141438380Y-104547942D01*
X141486000Y-104405085D01*
X141533619Y-104357466D01*
X141438380Y-104024133D02*
X141438380Y-103357466D01*
X142438380Y-103786038D01*
X117501466Y-111202780D02*
X117501466Y-111917066D01*
X117453847Y-112059923D01*
X117358609Y-112155161D01*
X117215752Y-112202780D01*
X117120514Y-112202780D01*
X118406228Y-111536114D02*
X118406228Y-112202780D01*
X118168133Y-111155161D02*
X117930038Y-111869447D01*
X118549085Y-111869447D01*
X142686019Y-79902038D02*
X142638400Y-79997276D01*
X142543161Y-80092514D01*
X142400304Y-80235371D01*
X142352685Y-80330609D01*
X142352685Y-80425847D01*
X142590780Y-80378228D02*
X142543161Y-80473466D01*
X142447923Y-80568704D01*
X142257447Y-80616323D01*
X141924114Y-80616323D01*
X141733638Y-80568704D01*
X141638400Y-80473466D01*
X141590780Y-80378228D01*
X141590780Y-80187752D01*
X141638400Y-80092514D01*
X141733638Y-79997276D01*
X141924114Y-79949657D01*
X142257447Y-79949657D01*
X142447923Y-79997276D01*
X142543161Y-80092514D01*
X142590780Y-80187752D01*
X142590780Y-80378228D01*
X141686019Y-79568704D02*
X141638400Y-79521085D01*
X141590780Y-79425847D01*
X141590780Y-79187752D01*
X141638400Y-79092514D01*
X141686019Y-79044895D01*
X141781257Y-78997276D01*
X141876495Y-78997276D01*
X142019352Y-79044895D01*
X142590780Y-79616323D01*
X142590780Y-78997276D01*
X137504419Y-79952838D02*
X137456800Y-80048076D01*
X137361561Y-80143314D01*
X137218704Y-80286171D01*
X137171085Y-80381409D01*
X137171085Y-80476647D01*
X137409180Y-80429028D02*
X137361561Y-80524266D01*
X137266323Y-80619504D01*
X137075847Y-80667123D01*
X136742514Y-80667123D01*
X136552038Y-80619504D01*
X136456800Y-80524266D01*
X136409180Y-80429028D01*
X136409180Y-80238552D01*
X136456800Y-80143314D01*
X136552038Y-80048076D01*
X136742514Y-80000457D01*
X137075847Y-80000457D01*
X137266323Y-80048076D01*
X137361561Y-80143314D01*
X137409180Y-80238552D01*
X137409180Y-80429028D01*
X137409180Y-79048076D02*
X137409180Y-79619504D01*
X137409180Y-79333790D02*
X136409180Y-79333790D01*
X136552038Y-79429028D01*
X136647276Y-79524266D01*
X136694895Y-79619504D01*
X127384276Y-96612780D02*
X128050942Y-97612780D01*
X128050942Y-96612780D02*
X127384276Y-97612780D01*
X128384276Y-96708019D02*
X128431895Y-96660400D01*
X128527133Y-96612780D01*
X128765228Y-96612780D01*
X128860466Y-96660400D01*
X128908085Y-96708019D01*
X128955704Y-96803257D01*
X128955704Y-96898495D01*
X128908085Y-97041352D01*
X128336657Y-97612780D01*
X128955704Y-97612780D01*
X109880495Y-95261180D02*
X109880495Y-96070704D01*
X109928114Y-96165942D01*
X109975733Y-96213561D01*
X110070971Y-96261180D01*
X110261447Y-96261180D01*
X110356685Y-96213561D01*
X110404304Y-96165942D01*
X110451923Y-96070704D01*
X110451923Y-95261180D01*
X111451923Y-96261180D02*
X110880495Y-96261180D01*
X111166209Y-96261180D02*
X111166209Y-95261180D01*
X111070971Y-95404038D01*
X110975733Y-95499276D01*
X110880495Y-95546895D01*
D19*
X147510620Y-88916579D02*
X147547390Y-88806271D01*
X147547390Y-88622423D01*
X147510620Y-88548884D01*
X147473851Y-88512114D01*
X147400312Y-88475345D01*
X147326773Y-88475345D01*
X147253234Y-88512114D01*
X147216464Y-88548884D01*
X147179695Y-88622423D01*
X147142925Y-88769501D01*
X147106156Y-88843040D01*
X147069386Y-88879810D01*
X146995847Y-88916579D01*
X146922308Y-88916579D01*
X146848769Y-88879810D01*
X146812000Y-88843040D01*
X146775230Y-88769501D01*
X146775230Y-88585653D01*
X146812000Y-88475345D01*
X146775230Y-88217958D02*
X147547390Y-88034111D01*
X146995847Y-87887033D01*
X147547390Y-87739954D01*
X146775230Y-87556107D01*
X147547390Y-86857486D02*
X147547390Y-87298720D01*
X147547390Y-87078103D02*
X146775230Y-87078103D01*
X146885539Y-87151642D01*
X146959078Y-87225181D01*
X146995847Y-87298720D01*
D11*
X130187980Y-91874933D02*
X130902266Y-91874933D01*
X131045123Y-91922552D01*
X131140361Y-92017790D01*
X131187980Y-92160647D01*
X131187980Y-92255885D01*
X131187980Y-90874933D02*
X131187980Y-91446361D01*
X131187980Y-91160647D02*
X130187980Y-91160647D01*
X130330838Y-91255885D01*
X130426076Y-91351123D01*
X130473695Y-91446361D01*
M02*
