G04 #@! TF.GenerationSoftware,KiCad,Pcbnew,(5.1.4)-1*
G04 #@! TF.CreationDate,2020-04-13T20:16:17-06:00*
G04 #@! TF.ProjectId,ECUGPS,45435547-5053-42e6-9b69-6361645f7063,rev?*
G04 #@! TF.SameCoordinates,Original*
G04 #@! TF.FileFunction,Soldermask,Bot*
G04 #@! TF.FilePolarity,Negative*
%FSLAX46Y46*%
G04 Gerber Fmt 4.6, Leading zero omitted, Abs format (unit mm)*
G04 Created by KiCad (PCBNEW (5.1.4)-1) date 2020-04-13 20:16:17*
%MOMM*%
%LPD*%
G04 APERTURE LIST*
%ADD10C,0.100000*%
G04 APERTURE END LIST*
D10*
G36*
X149029800Y-123054807D02*
G01*
X149032202Y-123079193D01*
X149039315Y-123102642D01*
X149050866Y-123124253D01*
X149066411Y-123143195D01*
X149085353Y-123158740D01*
X149106964Y-123170291D01*
X149130413Y-123177404D01*
X149154799Y-123179806D01*
X149179185Y-123177404D01*
X149202634Y-123170291D01*
X149224245Y-123158740D01*
X149243187Y-123143195D01*
X149258732Y-123124253D01*
X149270283Y-123102642D01*
X149277396Y-123079193D01*
X149312032Y-122905067D01*
X149398796Y-122695599D01*
X149398797Y-122695597D01*
X149524760Y-122507080D01*
X149685080Y-122346760D01*
X149873597Y-122220797D01*
X150083066Y-122134032D01*
X150194251Y-122111916D01*
X150305435Y-122089800D01*
X150532165Y-122089800D01*
X150643349Y-122111916D01*
X150754534Y-122134032D01*
X150964003Y-122220797D01*
X151152520Y-122346760D01*
X151312840Y-122507080D01*
X151438803Y-122695597D01*
X151438804Y-122695599D01*
X151525568Y-122905067D01*
X151566203Y-123109352D01*
X151573316Y-123132801D01*
X151584867Y-123154412D01*
X151600412Y-123173354D01*
X151619354Y-123188899D01*
X151640965Y-123200450D01*
X151664414Y-123207563D01*
X151688800Y-123209965D01*
X151713186Y-123207563D01*
X151736635Y-123200450D01*
X151758246Y-123188899D01*
X151777188Y-123173354D01*
X151792733Y-123154412D01*
X151804284Y-123132801D01*
X151811397Y-123109352D01*
X151852032Y-122905067D01*
X151938796Y-122695599D01*
X151938797Y-122695597D01*
X152064760Y-122507080D01*
X152225080Y-122346760D01*
X152413597Y-122220797D01*
X152623066Y-122134032D01*
X152734251Y-122111916D01*
X152845435Y-122089800D01*
X153072165Y-122089800D01*
X153183349Y-122111916D01*
X153294534Y-122134032D01*
X153504003Y-122220797D01*
X153692520Y-122346760D01*
X153852840Y-122507080D01*
X153978803Y-122695597D01*
X153978804Y-122695599D01*
X154065568Y-122905067D01*
X154106203Y-123109352D01*
X154113316Y-123132801D01*
X154124867Y-123154412D01*
X154140412Y-123173354D01*
X154159354Y-123188899D01*
X154180965Y-123200450D01*
X154204414Y-123207563D01*
X154228800Y-123209965D01*
X154253186Y-123207563D01*
X154276635Y-123200450D01*
X154298246Y-123188899D01*
X154317188Y-123173354D01*
X154332733Y-123154412D01*
X154344284Y-123132801D01*
X154351397Y-123109352D01*
X154392032Y-122905067D01*
X154478796Y-122695599D01*
X154478797Y-122695597D01*
X154604760Y-122507080D01*
X154765080Y-122346760D01*
X154953597Y-122220797D01*
X155163066Y-122134032D01*
X155274251Y-122111916D01*
X155385435Y-122089800D01*
X155612165Y-122089800D01*
X155723349Y-122111916D01*
X155834534Y-122134032D01*
X156044003Y-122220797D01*
X156232520Y-122346760D01*
X156392840Y-122507080D01*
X156518803Y-122695597D01*
X156605568Y-122905066D01*
X156649800Y-123127436D01*
X156649800Y-123354164D01*
X156605568Y-123576534D01*
X156518803Y-123786003D01*
X156392840Y-123974520D01*
X156232520Y-124134840D01*
X156044003Y-124260803D01*
X155834534Y-124347568D01*
X155723349Y-124369684D01*
X155612165Y-124391800D01*
X155385435Y-124391800D01*
X155274251Y-124369684D01*
X155163066Y-124347568D01*
X154953597Y-124260803D01*
X154765080Y-124134840D01*
X154604760Y-123974520D01*
X154478797Y-123786003D01*
X154392032Y-123576534D01*
X154351397Y-123372248D01*
X154344284Y-123348799D01*
X154332733Y-123327188D01*
X154317188Y-123308246D01*
X154298246Y-123292701D01*
X154276635Y-123281150D01*
X154253186Y-123274037D01*
X154228800Y-123271635D01*
X154204414Y-123274037D01*
X154180965Y-123281150D01*
X154159354Y-123292701D01*
X154140412Y-123308246D01*
X154124867Y-123327188D01*
X154113316Y-123348799D01*
X154106203Y-123372248D01*
X154065568Y-123576534D01*
X153978803Y-123786003D01*
X153852840Y-123974520D01*
X153692520Y-124134840D01*
X153504003Y-124260803D01*
X153294534Y-124347568D01*
X153183349Y-124369684D01*
X153072165Y-124391800D01*
X152845435Y-124391800D01*
X152734251Y-124369684D01*
X152623066Y-124347568D01*
X152413597Y-124260803D01*
X152225080Y-124134840D01*
X152064760Y-123974520D01*
X151938797Y-123786003D01*
X151852032Y-123576534D01*
X151811397Y-123372248D01*
X151804284Y-123348799D01*
X151792733Y-123327188D01*
X151777188Y-123308246D01*
X151758246Y-123292701D01*
X151736635Y-123281150D01*
X151713186Y-123274037D01*
X151688800Y-123271635D01*
X151664414Y-123274037D01*
X151640965Y-123281150D01*
X151619354Y-123292701D01*
X151600412Y-123308246D01*
X151584867Y-123327188D01*
X151573316Y-123348799D01*
X151566203Y-123372248D01*
X151525568Y-123576534D01*
X151438803Y-123786003D01*
X151312840Y-123974520D01*
X151152520Y-124134840D01*
X150964003Y-124260803D01*
X150754534Y-124347568D01*
X150643349Y-124369684D01*
X150532165Y-124391800D01*
X150305435Y-124391800D01*
X150194251Y-124369684D01*
X150083066Y-124347568D01*
X149873597Y-124260803D01*
X149685080Y-124134840D01*
X149524760Y-123974520D01*
X149398797Y-123786003D01*
X149312032Y-123576534D01*
X149277396Y-123402407D01*
X149270283Y-123378958D01*
X149258732Y-123357347D01*
X149243187Y-123338405D01*
X149224245Y-123322860D01*
X149202634Y-123311309D01*
X149179185Y-123304196D01*
X149154799Y-123301794D01*
X149130413Y-123304196D01*
X149106964Y-123311309D01*
X149085353Y-123322860D01*
X149066411Y-123338405D01*
X149050866Y-123357347D01*
X149039315Y-123378958D01*
X149032202Y-123402407D01*
X149029800Y-123426793D01*
X149029800Y-124391800D01*
X146727800Y-124391800D01*
X146727800Y-122089800D01*
X149029800Y-122089800D01*
X149029800Y-123054807D01*
X149029800Y-123054807D01*
G37*
G36*
X93302200Y-106916600D02*
G01*
X92337193Y-106916600D01*
X92312807Y-106919002D01*
X92289358Y-106926115D01*
X92267747Y-106937666D01*
X92248805Y-106953211D01*
X92233260Y-106972153D01*
X92221709Y-106993764D01*
X92214596Y-107017213D01*
X92212194Y-107041599D01*
X92214596Y-107065985D01*
X92221709Y-107089434D01*
X92233260Y-107111045D01*
X92248805Y-107129987D01*
X92267747Y-107145532D01*
X92289358Y-107157083D01*
X92312808Y-107164196D01*
X92486934Y-107198832D01*
X92696403Y-107285597D01*
X92884920Y-107411560D01*
X93045240Y-107571880D01*
X93171203Y-107760397D01*
X93257968Y-107969866D01*
X93270908Y-108034921D01*
X93301517Y-108188799D01*
X93302200Y-108192236D01*
X93302200Y-108418964D01*
X93257968Y-108641334D01*
X93208636Y-108760431D01*
X93182155Y-108824364D01*
X93171203Y-108850803D01*
X93045240Y-109039320D01*
X92884920Y-109199640D01*
X92696403Y-109325603D01*
X92486934Y-109412368D01*
X92359361Y-109437744D01*
X92282648Y-109453003D01*
X92259199Y-109460116D01*
X92237588Y-109471667D01*
X92218646Y-109487212D01*
X92203101Y-109506154D01*
X92191550Y-109527765D01*
X92184437Y-109551214D01*
X92182035Y-109575600D01*
X92184437Y-109599986D01*
X92191550Y-109623435D01*
X92203101Y-109645046D01*
X92218646Y-109663988D01*
X92237588Y-109679533D01*
X92259199Y-109691084D01*
X92282648Y-109698197D01*
X92359361Y-109713456D01*
X92486934Y-109738832D01*
X92696403Y-109825597D01*
X92884920Y-109951560D01*
X93045240Y-110111880D01*
X93171203Y-110300397D01*
X93257968Y-110509866D01*
X93302200Y-110732236D01*
X93302200Y-110958964D01*
X93257968Y-111181334D01*
X93171203Y-111390803D01*
X93045240Y-111579320D01*
X92884920Y-111739640D01*
X92696403Y-111865603D01*
X92486934Y-111952368D01*
X92359361Y-111977744D01*
X92282648Y-111993003D01*
X92259199Y-112000116D01*
X92237588Y-112011667D01*
X92218646Y-112027212D01*
X92203101Y-112046154D01*
X92191550Y-112067765D01*
X92184437Y-112091214D01*
X92182035Y-112115600D01*
X92184437Y-112139986D01*
X92191550Y-112163435D01*
X92203101Y-112185046D01*
X92218646Y-112203988D01*
X92237588Y-112219533D01*
X92259199Y-112231084D01*
X92282648Y-112238197D01*
X92359361Y-112253456D01*
X92486934Y-112278832D01*
X92696403Y-112365597D01*
X92884920Y-112491560D01*
X93045240Y-112651880D01*
X93171203Y-112840397D01*
X93257968Y-113049866D01*
X93302200Y-113272236D01*
X93302200Y-113498964D01*
X93257968Y-113721334D01*
X93171203Y-113930803D01*
X93045240Y-114119320D01*
X92884920Y-114279640D01*
X92696403Y-114405603D01*
X92486934Y-114492368D01*
X92375749Y-114514484D01*
X92264565Y-114536600D01*
X92037835Y-114536600D01*
X91926651Y-114514484D01*
X91815466Y-114492368D01*
X91605997Y-114405603D01*
X91417480Y-114279640D01*
X91257160Y-114119320D01*
X91131197Y-113930803D01*
X91044432Y-113721334D01*
X91000200Y-113498964D01*
X91000200Y-113272236D01*
X91044432Y-113049866D01*
X91131197Y-112840397D01*
X91257160Y-112651880D01*
X91417480Y-112491560D01*
X91605997Y-112365597D01*
X91815466Y-112278832D01*
X91943039Y-112253456D01*
X92019752Y-112238197D01*
X92043201Y-112231084D01*
X92064812Y-112219533D01*
X92083754Y-112203988D01*
X92099299Y-112185046D01*
X92110850Y-112163435D01*
X92117963Y-112139986D01*
X92120365Y-112115600D01*
X92117963Y-112091214D01*
X92110850Y-112067765D01*
X92099299Y-112046154D01*
X92083754Y-112027212D01*
X92064812Y-112011667D01*
X92043201Y-112000116D01*
X92019752Y-111993003D01*
X91943039Y-111977744D01*
X91815466Y-111952368D01*
X91605997Y-111865603D01*
X91417480Y-111739640D01*
X91257160Y-111579320D01*
X91131197Y-111390803D01*
X91044432Y-111181334D01*
X91000200Y-110958964D01*
X91000200Y-110732236D01*
X91044432Y-110509866D01*
X91131197Y-110300397D01*
X91257160Y-110111880D01*
X91417480Y-109951560D01*
X91605997Y-109825597D01*
X91815466Y-109738832D01*
X91943039Y-109713456D01*
X92019752Y-109698197D01*
X92043201Y-109691084D01*
X92064812Y-109679533D01*
X92083754Y-109663988D01*
X92099299Y-109645046D01*
X92110850Y-109623435D01*
X92117963Y-109599986D01*
X92120365Y-109575600D01*
X92117963Y-109551214D01*
X92110850Y-109527765D01*
X92099299Y-109506154D01*
X92083754Y-109487212D01*
X92064812Y-109471667D01*
X92043201Y-109460116D01*
X92019752Y-109453003D01*
X91943039Y-109437744D01*
X91815466Y-109412368D01*
X91605997Y-109325603D01*
X91417480Y-109199640D01*
X91257160Y-109039320D01*
X91131197Y-108850803D01*
X91120246Y-108824364D01*
X91093764Y-108760431D01*
X91044432Y-108641334D01*
X91000200Y-108418964D01*
X91000200Y-108192236D01*
X91000884Y-108188799D01*
X91031492Y-108034921D01*
X91044432Y-107969866D01*
X91131197Y-107760397D01*
X91257160Y-107571880D01*
X91417480Y-107411560D01*
X91605997Y-107285597D01*
X91815466Y-107198832D01*
X91989592Y-107164196D01*
X92013042Y-107157083D01*
X92034653Y-107145532D01*
X92053595Y-107129987D01*
X92069140Y-107111045D01*
X92080691Y-107089434D01*
X92087804Y-107065985D01*
X92090206Y-107041599D01*
X92087804Y-107017213D01*
X92080691Y-106993764D01*
X92069140Y-106972153D01*
X92053595Y-106953211D01*
X92034653Y-106937666D01*
X92013042Y-106926115D01*
X91989593Y-106919002D01*
X91965207Y-106916600D01*
X91000200Y-106916600D01*
X91000200Y-104614600D01*
X93302200Y-104614600D01*
X93302200Y-106916600D01*
X93302200Y-106916600D01*
G37*
G36*
X158380200Y-111788100D02*
G01*
X156478200Y-111788100D01*
X156478200Y-110411100D01*
X158380200Y-110411100D01*
X158380200Y-111788100D01*
X158380200Y-111788100D01*
G37*
G36*
X157745751Y-108713092D02*
G01*
X157826670Y-108721062D01*
X157956452Y-108760431D01*
X158005845Y-108786833D01*
X158076060Y-108824363D01*
X158180899Y-108910401D01*
X158266936Y-109015239D01*
X158330869Y-109134848D01*
X158370238Y-109264630D01*
X158383531Y-109399600D01*
X158370238Y-109534570D01*
X158330869Y-109664352D01*
X158316580Y-109691084D01*
X158266937Y-109783960D01*
X158180899Y-109888799D01*
X158076060Y-109974837D01*
X158005845Y-110012367D01*
X157956452Y-110038769D01*
X157826670Y-110078138D01*
X157745751Y-110086108D01*
X157725522Y-110088100D01*
X157132878Y-110088100D01*
X157112649Y-110086108D01*
X157031730Y-110078138D01*
X156901948Y-110038769D01*
X156852555Y-110012367D01*
X156782340Y-109974837D01*
X156677501Y-109888799D01*
X156591463Y-109783960D01*
X156541820Y-109691084D01*
X156527531Y-109664352D01*
X156488162Y-109534570D01*
X156474869Y-109399600D01*
X156488162Y-109264630D01*
X156527531Y-109134848D01*
X156591464Y-109015239D01*
X156677501Y-108910401D01*
X156782340Y-108824363D01*
X156852555Y-108786833D01*
X156901948Y-108760431D01*
X157031730Y-108721062D01*
X157112649Y-108713092D01*
X157132878Y-108711100D01*
X157725522Y-108711100D01*
X157745751Y-108713092D01*
X157745751Y-108713092D01*
G37*
G36*
X157745751Y-107013092D02*
G01*
X157826670Y-107021062D01*
X157956452Y-107060431D01*
X158005845Y-107086833D01*
X158076060Y-107124363D01*
X158180899Y-107210401D01*
X158266936Y-107315239D01*
X158330869Y-107434848D01*
X158370238Y-107564630D01*
X158383531Y-107699600D01*
X158370238Y-107834570D01*
X158330869Y-107964352D01*
X158327921Y-107969867D01*
X158266937Y-108083960D01*
X158180899Y-108188799D01*
X158076060Y-108274837D01*
X158005845Y-108312367D01*
X157956452Y-108338769D01*
X157826670Y-108378138D01*
X157745751Y-108386108D01*
X157725522Y-108388100D01*
X157132878Y-108388100D01*
X157112649Y-108386108D01*
X157031730Y-108378138D01*
X156901948Y-108338769D01*
X156852555Y-108312367D01*
X156782340Y-108274837D01*
X156677501Y-108188799D01*
X156591463Y-108083960D01*
X156530479Y-107969867D01*
X156527531Y-107964352D01*
X156488162Y-107834570D01*
X156474869Y-107699600D01*
X156488162Y-107564630D01*
X156527531Y-107434848D01*
X156591464Y-107315239D01*
X156677501Y-107210401D01*
X156782340Y-107124363D01*
X156852555Y-107086833D01*
X156901948Y-107060431D01*
X157031730Y-107021062D01*
X157112649Y-107013092D01*
X157132878Y-107011100D01*
X157725522Y-107011100D01*
X157745751Y-107013092D01*
X157745751Y-107013092D01*
G37*
G36*
X145226091Y-107747343D02*
G01*
X145247922Y-107751685D01*
X145289051Y-107768721D01*
X145326067Y-107793454D01*
X145357546Y-107824933D01*
X145382279Y-107861949D01*
X145399315Y-107903078D01*
X145408000Y-107946741D01*
X145408000Y-107991259D01*
X145399315Y-108034922D01*
X145382279Y-108076051D01*
X145357546Y-108113067D01*
X145326067Y-108144546D01*
X145289051Y-108169279D01*
X145247922Y-108186315D01*
X145235439Y-108188798D01*
X145204260Y-108195000D01*
X145159740Y-108195000D01*
X145128561Y-108188798D01*
X145116078Y-108186315D01*
X145074949Y-108169279D01*
X145037933Y-108144546D01*
X145006454Y-108113067D01*
X144981721Y-108076051D01*
X144964685Y-108034922D01*
X144956000Y-107991259D01*
X144956000Y-107946741D01*
X144964685Y-107903078D01*
X144981721Y-107861949D01*
X145006454Y-107824933D01*
X145037933Y-107793454D01*
X145074949Y-107768721D01*
X145116078Y-107751685D01*
X145137909Y-107747343D01*
X145159740Y-107743000D01*
X145204260Y-107743000D01*
X145226091Y-107747343D01*
X145226091Y-107747343D01*
G37*
G36*
X157745751Y-105313092D02*
G01*
X157826670Y-105321062D01*
X157956452Y-105360431D01*
X158005845Y-105386833D01*
X158076060Y-105424363D01*
X158180899Y-105510401D01*
X158266937Y-105615240D01*
X158285292Y-105649580D01*
X158330869Y-105734848D01*
X158370238Y-105864630D01*
X158383531Y-105999600D01*
X158370238Y-106134570D01*
X158330869Y-106264352D01*
X158330866Y-106264357D01*
X158266937Y-106383960D01*
X158180899Y-106488799D01*
X158076060Y-106574837D01*
X158005845Y-106612367D01*
X157956452Y-106638769D01*
X157826670Y-106678138D01*
X157745751Y-106686108D01*
X157725522Y-106688100D01*
X157132878Y-106688100D01*
X157112649Y-106686108D01*
X157031730Y-106678138D01*
X156901948Y-106638769D01*
X156852555Y-106612367D01*
X156782340Y-106574837D01*
X156677501Y-106488799D01*
X156591463Y-106383960D01*
X156527534Y-106264357D01*
X156527531Y-106264352D01*
X156488162Y-106134570D01*
X156474869Y-105999600D01*
X156488162Y-105864630D01*
X156527531Y-105734848D01*
X156573108Y-105649580D01*
X156591463Y-105615240D01*
X156677501Y-105510401D01*
X156782340Y-105424363D01*
X156852555Y-105386833D01*
X156901948Y-105360431D01*
X157031730Y-105321062D01*
X157112649Y-105313092D01*
X157132878Y-105311100D01*
X157725522Y-105311100D01*
X157745751Y-105313092D01*
X157745751Y-105313092D01*
G37*
G36*
X145423552Y-105260331D02*
G01*
X145505627Y-105294328D01*
X145505629Y-105294329D01*
X145579496Y-105343686D01*
X145642314Y-105406504D01*
X145689866Y-105477669D01*
X145691672Y-105480373D01*
X145725669Y-105562448D01*
X145743000Y-105649579D01*
X145743000Y-105738421D01*
X145725669Y-105825552D01*
X145691672Y-105907627D01*
X145691671Y-105907629D01*
X145642314Y-105981496D01*
X145579496Y-106044314D01*
X145505629Y-106093671D01*
X145505628Y-106093672D01*
X145505627Y-106093672D01*
X145423552Y-106127669D01*
X145336421Y-106145000D01*
X145247579Y-106145000D01*
X145160448Y-106127669D01*
X145078373Y-106093672D01*
X145078372Y-106093672D01*
X145078371Y-106093671D01*
X145004504Y-106044314D01*
X144941686Y-105981496D01*
X144892329Y-105907629D01*
X144892328Y-105907627D01*
X144858331Y-105825552D01*
X144841000Y-105738421D01*
X144841000Y-105649579D01*
X144858331Y-105562448D01*
X144892328Y-105480373D01*
X144894135Y-105477669D01*
X144941686Y-105406504D01*
X145004504Y-105343686D01*
X145078371Y-105294329D01*
X145078373Y-105294328D01*
X145160448Y-105260331D01*
X145247579Y-105243000D01*
X145336421Y-105243000D01*
X145423552Y-105260331D01*
X145423552Y-105260331D01*
G37*
G36*
X146423552Y-104610331D02*
G01*
X146505627Y-104644328D01*
X146505629Y-104644329D01*
X146542813Y-104669175D01*
X146564941Y-104683960D01*
X146579496Y-104693686D01*
X146642314Y-104756504D01*
X146689866Y-104827669D01*
X146691672Y-104830373D01*
X146725669Y-104912448D01*
X146743000Y-104999579D01*
X146743000Y-105088421D01*
X146725669Y-105175552D01*
X146691672Y-105257627D01*
X146691671Y-105257629D01*
X146642314Y-105331496D01*
X146579496Y-105394314D01*
X146505629Y-105443671D01*
X146505628Y-105443672D01*
X146505627Y-105443672D01*
X146423552Y-105477669D01*
X146336421Y-105495000D01*
X146247579Y-105495000D01*
X146160448Y-105477669D01*
X146078373Y-105443672D01*
X146078372Y-105443672D01*
X146078371Y-105443671D01*
X146004504Y-105394314D01*
X145941686Y-105331496D01*
X145892329Y-105257629D01*
X145892328Y-105257627D01*
X145858331Y-105175552D01*
X145841000Y-105088421D01*
X145841000Y-104999579D01*
X145858331Y-104912448D01*
X145892328Y-104830373D01*
X145894135Y-104827669D01*
X145941686Y-104756504D01*
X146004504Y-104693686D01*
X146019060Y-104683960D01*
X146041187Y-104669175D01*
X146078371Y-104644329D01*
X146078373Y-104644328D01*
X146160448Y-104610331D01*
X146247579Y-104593000D01*
X146336421Y-104593000D01*
X146423552Y-104610331D01*
X146423552Y-104610331D01*
G37*
G36*
X157739208Y-103612448D02*
G01*
X157826670Y-103621062D01*
X157956452Y-103660431D01*
X158005845Y-103686833D01*
X158076060Y-103724363D01*
X158180899Y-103810401D01*
X158266937Y-103915240D01*
X158291039Y-103960332D01*
X158330869Y-104034848D01*
X158370238Y-104164630D01*
X158383531Y-104299600D01*
X158370238Y-104434570D01*
X158330869Y-104564352D01*
X158330866Y-104564357D01*
X158266937Y-104683960D01*
X158180899Y-104788799D01*
X158076060Y-104874837D01*
X158005845Y-104912367D01*
X157956452Y-104938769D01*
X157826670Y-104978138D01*
X157745751Y-104986108D01*
X157725522Y-104988100D01*
X157132878Y-104988100D01*
X157112649Y-104986108D01*
X157031730Y-104978138D01*
X156901948Y-104938769D01*
X156852555Y-104912367D01*
X156782340Y-104874837D01*
X156677501Y-104788799D01*
X156591463Y-104683960D01*
X156527534Y-104564357D01*
X156527531Y-104564352D01*
X156488162Y-104434570D01*
X156474869Y-104299600D01*
X156488162Y-104164630D01*
X156527531Y-104034848D01*
X156567361Y-103960332D01*
X156591463Y-103915240D01*
X156677501Y-103810401D01*
X156782340Y-103724363D01*
X156852555Y-103686833D01*
X156901948Y-103660431D01*
X157031730Y-103621062D01*
X157119192Y-103612448D01*
X157132878Y-103611100D01*
X157725522Y-103611100D01*
X157739208Y-103612448D01*
X157739208Y-103612448D01*
G37*
G36*
X145423552Y-103960331D02*
G01*
X145505627Y-103994328D01*
X145505629Y-103994329D01*
X145579496Y-104043686D01*
X145642314Y-104106504D01*
X145689866Y-104177669D01*
X145691672Y-104180373D01*
X145725669Y-104262448D01*
X145743000Y-104349579D01*
X145743000Y-104438421D01*
X145725669Y-104525552D01*
X145691672Y-104607627D01*
X145691671Y-104607629D01*
X145642314Y-104681496D01*
X145579496Y-104744314D01*
X145505629Y-104793671D01*
X145505628Y-104793672D01*
X145505627Y-104793672D01*
X145423552Y-104827669D01*
X145336421Y-104845000D01*
X145247579Y-104845000D01*
X145160448Y-104827669D01*
X145078373Y-104793672D01*
X145078372Y-104793672D01*
X145078371Y-104793671D01*
X145004504Y-104744314D01*
X144941686Y-104681496D01*
X144892329Y-104607629D01*
X144892328Y-104607627D01*
X144858331Y-104525552D01*
X144841000Y-104438421D01*
X144841000Y-104349579D01*
X144858331Y-104262448D01*
X144892328Y-104180373D01*
X144894135Y-104177669D01*
X144941686Y-104106504D01*
X145004504Y-104043686D01*
X145078371Y-103994329D01*
X145078373Y-103994328D01*
X145160448Y-103960331D01*
X145247579Y-103943000D01*
X145336421Y-103943000D01*
X145423552Y-103960331D01*
X145423552Y-103960331D01*
G37*
G36*
X146423552Y-103310331D02*
G01*
X146505627Y-103344328D01*
X146505629Y-103344329D01*
X146579496Y-103393686D01*
X146642314Y-103456504D01*
X146689866Y-103527669D01*
X146691672Y-103530373D01*
X146725669Y-103612448D01*
X146743000Y-103699579D01*
X146743000Y-103788421D01*
X146725669Y-103875552D01*
X146691672Y-103957627D01*
X146691671Y-103957629D01*
X146642314Y-104031496D01*
X146579496Y-104094314D01*
X146505629Y-104143671D01*
X146505628Y-104143672D01*
X146505627Y-104143672D01*
X146423552Y-104177669D01*
X146336421Y-104195000D01*
X146247579Y-104195000D01*
X146160448Y-104177669D01*
X146078373Y-104143672D01*
X146078372Y-104143672D01*
X146078371Y-104143671D01*
X146004504Y-104094314D01*
X145941686Y-104031496D01*
X145892329Y-103957629D01*
X145892328Y-103957627D01*
X145858331Y-103875552D01*
X145841000Y-103788421D01*
X145841000Y-103699579D01*
X145858331Y-103612448D01*
X145892328Y-103530373D01*
X145894135Y-103527669D01*
X145941686Y-103456504D01*
X146004504Y-103393686D01*
X146078371Y-103344329D01*
X146078373Y-103344328D01*
X146160448Y-103310331D01*
X146247579Y-103293000D01*
X146336421Y-103293000D01*
X146423552Y-103310331D01*
X146423552Y-103310331D01*
G37*
G36*
X145423552Y-102660331D02*
G01*
X145505627Y-102694328D01*
X145505629Y-102694329D01*
X145542813Y-102719175D01*
X145579495Y-102743685D01*
X145642315Y-102806505D01*
X145691672Y-102880373D01*
X145725669Y-102962448D01*
X145743000Y-103049579D01*
X145743000Y-103138421D01*
X145725669Y-103225552D01*
X145691672Y-103307627D01*
X145691671Y-103307629D01*
X145642314Y-103381496D01*
X145579496Y-103444314D01*
X145505629Y-103493671D01*
X145505628Y-103493672D01*
X145505627Y-103493672D01*
X145423552Y-103527669D01*
X145336421Y-103545000D01*
X145247579Y-103545000D01*
X145160448Y-103527669D01*
X145078373Y-103493672D01*
X145078372Y-103493672D01*
X145078371Y-103493671D01*
X145004504Y-103444314D01*
X144941686Y-103381496D01*
X144892329Y-103307629D01*
X144892328Y-103307627D01*
X144858331Y-103225552D01*
X144841000Y-103138421D01*
X144841000Y-103049579D01*
X144858331Y-102962448D01*
X144892328Y-102880373D01*
X144941685Y-102806505D01*
X145004505Y-102743685D01*
X145041187Y-102719175D01*
X145078371Y-102694329D01*
X145078373Y-102694328D01*
X145160448Y-102660331D01*
X145247579Y-102643000D01*
X145336421Y-102643000D01*
X145423552Y-102660331D01*
X145423552Y-102660331D01*
G37*
G36*
X145226090Y-100597342D02*
G01*
X145247922Y-100601685D01*
X145289051Y-100618721D01*
X145326067Y-100643454D01*
X145357546Y-100674933D01*
X145382279Y-100711949D01*
X145399315Y-100753078D01*
X145408000Y-100796741D01*
X145408000Y-100841259D01*
X145399315Y-100884922D01*
X145382279Y-100926051D01*
X145357546Y-100963067D01*
X145326067Y-100994546D01*
X145289051Y-101019279D01*
X145247922Y-101036315D01*
X145226091Y-101040657D01*
X145204260Y-101045000D01*
X145159740Y-101045000D01*
X145137909Y-101040657D01*
X145116078Y-101036315D01*
X145074949Y-101019279D01*
X145037933Y-100994546D01*
X145006454Y-100963067D01*
X144981721Y-100926051D01*
X144964685Y-100884922D01*
X144956000Y-100841259D01*
X144956000Y-100796741D01*
X144964685Y-100753078D01*
X144981721Y-100711949D01*
X145006454Y-100674933D01*
X145037933Y-100643454D01*
X145074949Y-100618721D01*
X145116078Y-100601685D01*
X145137910Y-100597342D01*
X145159740Y-100593000D01*
X145204260Y-100593000D01*
X145226090Y-100597342D01*
X145226090Y-100597342D01*
G37*
G36*
X151608549Y-98140716D02*
G01*
X151719734Y-98162832D01*
X151929203Y-98249597D01*
X152117720Y-98375560D01*
X152278040Y-98535880D01*
X152404003Y-98724397D01*
X152490768Y-98933866D01*
X152535000Y-99156236D01*
X152535000Y-99382964D01*
X152490768Y-99605334D01*
X152404003Y-99814803D01*
X152278040Y-100003320D01*
X152117720Y-100163640D01*
X151929203Y-100289603D01*
X151719734Y-100376368D01*
X151608549Y-100398484D01*
X151497365Y-100420600D01*
X151270635Y-100420600D01*
X151159451Y-100398484D01*
X151048266Y-100376368D01*
X150838797Y-100289603D01*
X150650280Y-100163640D01*
X150489960Y-100003320D01*
X150363997Y-99814803D01*
X150277232Y-99605334D01*
X150233000Y-99382964D01*
X150233000Y-99156236D01*
X150277232Y-98933866D01*
X150363997Y-98724397D01*
X150489960Y-98535880D01*
X150650280Y-98375560D01*
X150838797Y-98249597D01*
X151048266Y-98162832D01*
X151159451Y-98140716D01*
X151270635Y-98118600D01*
X151497365Y-98118600D01*
X151608549Y-98140716D01*
X151608549Y-98140716D01*
G37*
G36*
X159108549Y-98140716D02*
G01*
X159219734Y-98162832D01*
X159429203Y-98249597D01*
X159617720Y-98375560D01*
X159778040Y-98535880D01*
X159904003Y-98724397D01*
X159990768Y-98933866D01*
X160035000Y-99156236D01*
X160035000Y-99382964D01*
X159990768Y-99605334D01*
X159904003Y-99814803D01*
X159778040Y-100003320D01*
X159617720Y-100163640D01*
X159429203Y-100289603D01*
X159219734Y-100376368D01*
X159108549Y-100398484D01*
X158997365Y-100420600D01*
X158770635Y-100420600D01*
X158659451Y-100398484D01*
X158548266Y-100376368D01*
X158338797Y-100289603D01*
X158150280Y-100163640D01*
X157989960Y-100003320D01*
X157863997Y-99814803D01*
X157777232Y-99605334D01*
X157733000Y-99382964D01*
X157733000Y-99156236D01*
X157777232Y-98933866D01*
X157863997Y-98724397D01*
X157989960Y-98535880D01*
X158150280Y-98375560D01*
X158338797Y-98249597D01*
X158548266Y-98162832D01*
X158659451Y-98140716D01*
X158770635Y-98118600D01*
X158997365Y-98118600D01*
X159108549Y-98140716D01*
X159108549Y-98140716D01*
G37*
G36*
X151608549Y-93140716D02*
G01*
X151719734Y-93162832D01*
X151929203Y-93249597D01*
X152117720Y-93375560D01*
X152278040Y-93535880D01*
X152404003Y-93724397D01*
X152490768Y-93933866D01*
X152535000Y-94156236D01*
X152535000Y-94382964D01*
X152490768Y-94605334D01*
X152404003Y-94814803D01*
X152278040Y-95003320D01*
X152117720Y-95163640D01*
X151929203Y-95289603D01*
X151719734Y-95376368D01*
X151608549Y-95398484D01*
X151497365Y-95420600D01*
X151270635Y-95420600D01*
X151159451Y-95398484D01*
X151048266Y-95376368D01*
X150838797Y-95289603D01*
X150650280Y-95163640D01*
X150489960Y-95003320D01*
X150363997Y-94814803D01*
X150277232Y-94605334D01*
X150233000Y-94382964D01*
X150233000Y-94156236D01*
X150277232Y-93933866D01*
X150363997Y-93724397D01*
X150489960Y-93535880D01*
X150650280Y-93375560D01*
X150838797Y-93249597D01*
X151048266Y-93162832D01*
X151159451Y-93140716D01*
X151270635Y-93118600D01*
X151497365Y-93118600D01*
X151608549Y-93140716D01*
X151608549Y-93140716D01*
G37*
G36*
X159108549Y-93140716D02*
G01*
X159219734Y-93162832D01*
X159429203Y-93249597D01*
X159617720Y-93375560D01*
X159778040Y-93535880D01*
X159904003Y-93724397D01*
X159990768Y-93933866D01*
X160035000Y-94156236D01*
X160035000Y-94382964D01*
X159990768Y-94605334D01*
X159904003Y-94814803D01*
X159778040Y-95003320D01*
X159617720Y-95163640D01*
X159429203Y-95289603D01*
X159219734Y-95376368D01*
X159108549Y-95398484D01*
X158997365Y-95420600D01*
X158770635Y-95420600D01*
X158659451Y-95398484D01*
X158548266Y-95376368D01*
X158338797Y-95289603D01*
X158150280Y-95163640D01*
X157989960Y-95003320D01*
X157863997Y-94814803D01*
X157777232Y-94605334D01*
X157733000Y-94382964D01*
X157733000Y-94156236D01*
X157777232Y-93933866D01*
X157863997Y-93724397D01*
X157989960Y-93535880D01*
X158150280Y-93375560D01*
X158338797Y-93249597D01*
X158548266Y-93162832D01*
X158659451Y-93140716D01*
X158770635Y-93118600D01*
X158997365Y-93118600D01*
X159108549Y-93140716D01*
X159108549Y-93140716D01*
G37*
G36*
X151608549Y-73140716D02*
G01*
X151719734Y-73162832D01*
X151929203Y-73249597D01*
X152117720Y-73375560D01*
X152278040Y-73535880D01*
X152404003Y-73724397D01*
X152490768Y-73933866D01*
X152535000Y-74156236D01*
X152535000Y-74382964D01*
X152490768Y-74605334D01*
X152404003Y-74814803D01*
X152278040Y-75003320D01*
X152117720Y-75163640D01*
X151929203Y-75289603D01*
X151719734Y-75376368D01*
X151608549Y-75398484D01*
X151497365Y-75420600D01*
X151270635Y-75420600D01*
X151159451Y-75398484D01*
X151048266Y-75376368D01*
X150838797Y-75289603D01*
X150650280Y-75163640D01*
X150489960Y-75003320D01*
X150363997Y-74814803D01*
X150277232Y-74605334D01*
X150233000Y-74382964D01*
X150233000Y-74156236D01*
X150277232Y-73933866D01*
X150363997Y-73724397D01*
X150489960Y-73535880D01*
X150650280Y-73375560D01*
X150838797Y-73249597D01*
X151048266Y-73162832D01*
X151159451Y-73140716D01*
X151270635Y-73118600D01*
X151497365Y-73118600D01*
X151608549Y-73140716D01*
X151608549Y-73140716D01*
G37*
G36*
X155358549Y-73140716D02*
G01*
X155469734Y-73162832D01*
X155679203Y-73249597D01*
X155867720Y-73375560D01*
X156028040Y-73535880D01*
X156154003Y-73724397D01*
X156240768Y-73933866D01*
X156285000Y-74156236D01*
X156285000Y-74382964D01*
X156240768Y-74605334D01*
X156154003Y-74814803D01*
X156028040Y-75003320D01*
X155867720Y-75163640D01*
X155679203Y-75289603D01*
X155469734Y-75376368D01*
X155358549Y-75398484D01*
X155247365Y-75420600D01*
X155020635Y-75420600D01*
X154909451Y-75398484D01*
X154798266Y-75376368D01*
X154588797Y-75289603D01*
X154400280Y-75163640D01*
X154239960Y-75003320D01*
X154113997Y-74814803D01*
X154027232Y-74605334D01*
X153983000Y-74382964D01*
X153983000Y-74156236D01*
X154027232Y-73933866D01*
X154113997Y-73724397D01*
X154239960Y-73535880D01*
X154400280Y-73375560D01*
X154588797Y-73249597D01*
X154798266Y-73162832D01*
X154909451Y-73140716D01*
X155020635Y-73118600D01*
X155247365Y-73118600D01*
X155358549Y-73140716D01*
X155358549Y-73140716D01*
G37*
G36*
X160035000Y-75420600D02*
G01*
X157733000Y-75420600D01*
X157733000Y-73118600D01*
X160035000Y-73118600D01*
X160035000Y-75420600D01*
X160035000Y-75420600D01*
G37*
M02*
