M48
; DRILL file {KiCad (5.1.4)-1} date 4/13/2020 8:23:09 PM
; FORMAT={-:-/ absolute / metric / decimal}
; #@! TF.CreationDate,2020-04-13T20:23:09-06:00
; #@! TF.GenerationSoftware,Kicad,Pcbnew,(5.1.4)-1
; #@! TF.FileFunction,Plated,1,2,PTH
FMAT,2
METRIC
T1C0.381
T2C0.400
T3C0.762
T4C1.100
T5C1.300
T6C3.175
%
G90
G05
T1
X96.723Y-116.129
X99.72Y-115.722
X105.664Y-110.194
X111.76Y-87.02
X112.116Y-121.971
X113.233Y-54.915
X113.538Y-109.931
X114.402Y-88.036
X117.735Y-122.803
X120.294Y-92.202
X121.006Y-105.918
X122.072Y-99.517
X124.663Y-104.343
X128.778Y-106.477
X128.829Y-105.359
X131.318Y-97.942
X135.077Y-89.052
X135.636Y-107.747
X136.355Y-99.227
X137.262Y-103.886
X137.922Y-105.562
X137.973Y-107.086
X138.379Y-104.699
X142.035Y-105.057
X142.75Y-104.341
X155.042Y-111.912
X156.87Y-113.69
T2
X145.292Y-103.094
X145.292Y-104.394
X145.292Y-105.694
X146.292Y-103.744
X146.292Y-105.044
T3
X99.466Y-122.987
X109.017Y-95.656
X109.028Y-58.076
X115.57Y-121.945
X127.66Y-73.965
X129.845Y-117.043
X140.639Y-118.084
X148.184Y-106.629
T4
X157.429Y-104.3
X157.429Y-106.0
X157.429Y-107.7
X157.429Y-109.4
X157.429Y-111.1
X92.151Y-105.766
X92.151Y-108.306
X92.151Y-110.846
X92.151Y-113.386
X147.879Y-123.241
X150.419Y-123.241
X152.959Y-123.241
X155.499Y-123.241
T5
X151.384Y-74.27
X151.384Y-94.27
X151.384Y-99.27
X155.134Y-74.27
X158.884Y-74.27
X158.884Y-94.27
X158.884Y-99.27
T6
X90.932Y-55.88
X91.44Y-122.936
X160.02Y-55.88
X160.02Y-122.936
T0
M30
